Palanquin Bold.ufo
<glyph name="I" format="1">
  <advance width="297"/>
  <unicode hex="0049"/>
  <outline>
    <contour>
      <point x="148" y="702" type="move" name="topU"/>
    </contour>
    <contour>
      <point x="135" y="0" type="move" name="bottom"/>
    </contour>
    <contour>
      <point x="213" y="680" type="line"/>
      <point x="84" y="680" type="line"/>
      <point x="84" y="0" type="line"/>
      <point x="213" y="0" type="line"/>
    </contour>
  </outline>
</glyph>
<glyph name="dv_Ha" format="1">
  <advance width="563"/>
  <unicode hex="0939"/>
  <outline>
    <contour>
      <point x="575" y="569" type="line"/>
      <point x="558" y="680" type="line"/>
      <point x="-11" y="680" type="line"/>
      <point x="6" y="569" type="line"/>
      <point x="310" y="569" type="line"/>
      <point x="310" y="535" type="line"/>
      <point x="247" y="535" type="line" smooth="yes"/>
      <point x="162" y="535"/>
      <point x="76" y="484"/>
      <point x="76" y="394" type="curve" smooth="yes"/>
      <point x="76" y="360"/>
      <point x="95" y="325"/>
      <point x="125" y="301" type="curve"/>
      <point x="83" y="266"/>
      <point x="62" y="222"/>
      <point x="62" y="169" type="curve" smooth="yes"/>
      <point x="62" y="102"/>
      <point x="93" y="48"/>
      <point x="150" y="17" type="curve" smooth="yes"/>
      <point x="192" y="-6"/>
      <point x="247" y="-18"/>
      <point x="315" y="-18" type="curve" smooth="yes"/>
      <point x="351" y="-18"/>
      <point x="386" y="-15"/>
      <point x="418" y="-10" type="curve"/>
      <point x="442" y="-5"/>
      <point x="457" y="-2"/>
      <point x="485" y="7" type="curve"/>
      <point x="454" y="122" type="line"/>
      <point x="430" y="115"/>
      <point x="415" y="112"/>
      <point x="391" y="108" type="curve" smooth="yes"/>
      <point x="366" y="104"/>
      <point x="334" y="102"/>
      <point x="310" y="102" type="curve" smooth="yes"/>
      <point x="241" y="102"/>
      <point x="203" y="127"/>
      <point x="203" y="174" type="curve" smooth="yes"/>
      <point x="203" y="220"/>
      <point x="243" y="248"/>
      <point x="309" y="248" type="curve" smooth="yes"/>
      <point x="360" y="248"/>
      <point x="408" y="236"/>
      <point x="454" y="223" type="curve"/>
      <point x="485" y="338" type="line"/>
      <point x="422" y="356"/>
      <point x="363" y="360"/>
      <point x="303" y="360" type="curve" smooth="yes"/>
      <point x="282" y="360"/>
      <point x="268" y="358"/>
      <point x="254" y="358" type="curve" smooth="yes"/>
      <point x="230" y="358"/>
      <point x="213" y="372"/>
      <point x="213" y="390" type="curve" smooth="yes"/>
      <point x="213" y="410"/>
      <point x="233" y="425"/>
      <point x="260" y="425" type="curve" smooth="yes"/>
      <point x="463" y="425" type="line"/>
      <point x="463" y="569" type="line"/>
    </contour>
  </outline>
</glyph>
<glyph name="dv_Halant" format="1">
  <advance width="0"/>
  <unicode hex="094D"/>
  <outline>
    <contour>
      <point x="-87" y="-365" type="line"/>
      <point x="-4" y="-291" type="line"/>
      <point x="-225" y="-67" type="line"/>
      <point x="-322" y="-155" type="line"/>
    </contour>
  </outline>
</glyph>
<glyph name="dv_BhHa" format="1">
  <advance width="1011"/>
  <outline>
    <contour>
      <point x="1022" y="569" type="line"/>
      <point x="1005" y="680" type="line"/>
      <point x="446" y="680" type="line"/>
      <point x="463" y="569" type="line"/>
      <point x="757" y="569" type="line"/>
      <point x="757" y="535" type="line"/>
      <point x="694" y="535" type="line" smooth="yes"/>
      <point x="609" y="535"/>
      <point x="523" y="484"/>
      <point x="523" y="394" type="curve" smooth="yes"/>
      <point x="523" y="369"/>
      <point x="532" y="344"/>
      <point x="549" y="323" type="curve"/>
      <point x="346" y="323" type="line"/>
      <point x="346" y="521" type="line" smooth="yes"/>
      <point x="346" y="629"/>
      <point x="286" y="699"/>
      <point x="185" y="699" type="curve" smooth="yes"/>
      <point x="112" y="699"/>
      <point x="45" y="649"/>
      <point x="45" y="572" type="curve" smooth="yes"/>
      <point x="45" y="493"/>
      <point x="101" y="440"/>
      <point x="183" y="440" type="curve" smooth="yes"/>
      <point x="190" y="440"/>
      <point x="200" y="439"/>
      <point x="210" y="441" type="curve"/>
      <point x="210" y="323" type="line"/>
      <point x="167" y="323"/>
      <point x="139" y="304"/>
      <point x="139" y="265" type="curve" smooth="yes"/>
      <point x="139" y="188"/>
      <point x="219" y="139"/>
      <point x="288" y="139" type="curve" smooth="yes"/>
      <point x="318" y="139"/>
      <point x="332" y="182"/>
      <point x="332" y="213" type="curve"/>
      <point x="514" y="213" type="line"/>
      <point x="510" y="199"/>
      <point x="509" y="184"/>
      <point x="509" y="169" type="curve" smooth="yes"/>
      <point x="509" y="102"/>
      <point x="540" y="48"/>
      <point x="597" y="17" type="curve" smooth="yes"/>
      <point x="639" y="-6"/>
      <point x="694" y="-18"/>
      <point x="762" y="-18" type="curve" smooth="yes"/>
      <point x="798" y="-18"/>
      <point x="833" y="-15"/>
      <point x="865" y="-10" type="curve"/>
      <point x="889" y="-5"/>
      <point x="904" y="-2"/>
      <point x="932" y="7" type="curve"/>
      <point x="901" y="122" type="line"/>
      <point x="877" y="115"/>
      <point x="862" y="112"/>
      <point x="838" y="108" type="curve" smooth="yes"/>
      <point x="813" y="104"/>
      <point x="781" y="102"/>
      <point x="757" y="102" type="curve" smooth="yes"/>
      <point x="688" y="102"/>
      <point x="650" y="127"/>
      <point x="650" y="174" type="curve" smooth="yes"/>
      <point x="650" y="220"/>
      <point x="690" y="248"/>
      <point x="756" y="248" type="curve" smooth="yes"/>
      <point x="807" y="248"/>
      <point x="855" y="236"/>
      <point x="901" y="223" type="curve"/>
      <point x="932" y="338" type="line"/>
      <point x="869" y="356"/>
      <point x="810" y="360"/>
      <point x="750" y="360" type="curve" smooth="yes"/>
      <point x="729" y="360"/>
      <point x="715" y="358"/>
      <point x="701" y="358" type="curve" smooth="yes"/>
      <point x="677" y="358"/>
      <point x="660" y="372"/>
      <point x="660" y="390" type="curve" smooth="yes"/>
      <point x="660" y="410"/>
      <point x="680" y="425"/>
      <point x="707" y="425" type="curve" smooth="yes"/>
      <point x="910" y="425" type="line"/>
      <point x="910" y="569" type="line"/>
    </contour>
    <contour>
      <point x="190" y="545" type="curve" smooth="yes"/>
      <point x="179" y="545"/>
      <point x="169" y="552"/>
      <point x="169" y="566" type="curve" smooth="yes"/>
      <point x="169" y="577"/>
      <point x="176" y="588"/>
      <point x="189" y="588" type="curve" smooth="yes"/>
      <point x="202" y="588"/>
      <point x="211" y="573"/>
      <point x="211" y="556" type="curve"/>
      <point x="207" y="551"/>
      <point x="199" y="545"/>
    </contour>
  </outline>
</glyph>
<glyph name="dv_CHa" format="1">
  <advance width="947"/>
  <outline>
    <contour>
      <point x="958" y="569" type="line"/>
      <point x="941" y="680" type="line"/>
      <point x="-11" y="680" type="line"/>
      <point x="6" y="569" type="line"/>
      <point x="693" y="569" type="line"/>
      <point x="693" y="535" type="line"/>
      <point x="630" y="535" type="line" smooth="yes"/>
      <point x="545" y="535"/>
      <point x="459" y="484"/>
      <point x="459" y="394" type="curve" smooth="yes"/>
      <point x="459" y="360"/>
      <point x="478" y="325"/>
      <point x="508" y="301" type="curve"/>
      <point x="476" y="274"/>
      <point x="456" y="243"/>
      <point x="448" y="206" type="curve"/>
      <point x="426" y="191"/>
      <point x="396" y="183"/>
      <point x="363" y="183" type="curve" smooth="yes"/>
      <point x="302" y="183"/>
      <point x="250" y="217"/>
      <point x="250" y="271" type="curve" smooth="yes"/>
      <point x="250" y="324"/>
      <point x="288" y="356"/>
      <point x="367" y="358" type="curve"/>
      <point x="399" y="358" type="line"/>
      <point x="383" y="468" type="line"/>
      <point x="34" y="468" type="line"/>
      <point x="50" y="358" type="line"/>
      <point x="143" y="358" type="line"/>
      <point x="130" y="332"/>
      <point x="122" y="304"/>
      <point x="122" y="271" type="curve" smooth="yes"/>
      <point x="122" y="137"/>
      <point x="233" y="67"/>
      <point x="363" y="67" type="curve" smooth="yes"/>
      <point x="394" y="67"/>
      <point x="436" y="74"/>
      <point x="466" y="83" type="curve"/>
      <point x="481" y="56"/>
      <point x="503" y="33"/>
      <point x="533" y="17" type="curve" smooth="yes"/>
      <point x="575" y="-6"/>
      <point x="630" y="-18"/>
      <point x="698" y="-18" type="curve" smooth="yes"/>
      <point x="734" y="-18"/>
      <point x="769" y="-15"/>
      <point x="801" y="-10" type="curve"/>
      <point x="825" y="-5"/>
      <point x="840" y="-2"/>
      <point x="868" y="7" type="curve"/>
      <point x="837" y="122" type="line"/>
      <point x="813" y="115"/>
      <point x="798" y="112"/>
      <point x="774" y="108" type="curve" smooth="yes"/>
      <point x="749" y="104"/>
      <point x="717" y="102"/>
      <point x="693" y="102" type="curve" smooth="yes"/>
      <point x="624" y="102"/>
      <point x="586" y="127"/>
      <point x="586" y="174" type="curve" smooth="yes"/>
      <point x="586" y="220"/>
      <point x="626" y="248"/>
      <point x="692" y="248" type="curve" smooth="yes"/>
      <point x="743" y="248"/>
      <point x="791" y="236"/>
      <point x="837" y="223" type="curve"/>
      <point x="868" y="338" type="line"/>
      <point x="805" y="356"/>
      <point x="746" y="360"/>
      <point x="686" y="360" type="curve" smooth="yes"/>
      <point x="665" y="360"/>
      <point x="651" y="358"/>
      <point x="637" y="358" type="curve" smooth="yes"/>
      <point x="613" y="358"/>
      <point x="596" y="372"/>
      <point x="596" y="390" type="curve" smooth="yes"/>
      <point x="596" y="410"/>
      <point x="616" y="425"/>
      <point x="643" y="425" type="curve" smooth="yes"/>
      <point x="846" y="425" type="line"/>
      <point x="846" y="569" type="line"/>
    </contour>
  </outline>
</glyph>
<glyph name="dv_DhHa" format="1">
  <advance width="959"/>
  <outline>
    <contour>
      <point x="970" y="569" type="line"/>
      <point x="953" y="680" type="line"/>
      <point x="454" y="680" type="line"/>
      <point x="471" y="569" type="line"/>
      <point x="705" y="569" type="line"/>
      <point x="705" y="535" type="line"/>
      <point x="642" y="535" type="line" smooth="yes"/>
      <point x="557" y="535"/>
      <point x="471" y="484"/>
      <point x="471" y="394" type="curve" smooth="yes"/>
      <point x="471" y="360"/>
      <point x="490" y="325"/>
      <point x="520" y="301" type="curve"/>
      <point x="503" y="287"/>
      <point x="489" y="271"/>
      <point x="479" y="254" type="curve"/>
      <point x="430" y="199"/>
      <point x="373" y="182"/>
      <point x="316" y="182" type="curve" smooth="yes"/>
      <point x="244" y="182"/>
      <point x="202" y="216"/>
      <point x="202" y="263" type="curve" smooth="yes"/>
      <point x="202" y="307"/>
      <point x="237" y="344"/>
      <point x="302" y="344" type="curve" smooth="yes"/>
      <point x="364" y="344" type="line"/>
      <point x="344" y="453" type="line"/>
      <point x="295" y="453" type="line" smooth="yes"/>
      <point x="240" y="453"/>
      <point x="207" y="483"/>
      <point x="206" y="521" type="curve" smooth="yes"/>
      <point x="206" y="548"/>
      <point x="234" y="571"/>
      <point x="260" y="571" type="curve" smooth="yes"/>
      <point x="281" y="571"/>
      <point x="298" y="568"/>
      <point x="320" y="549" type="curve"/>
      <point x="387" y="640" type="line"/>
      <point x="360" y="666"/>
      <point x="321" y="694"/>
      <point x="256" y="694" type="curve" smooth="yes"/>
      <point x="146" y="694"/>
      <point x="73" y="613"/>
      <point x="73" y="526" type="curve" smooth="yes"/>
      <point x="73" y="480"/>
      <point x="91" y="433"/>
      <point x="120" y="403" type="curve"/>
      <point x="83" y="372"/>
      <point x="62" y="317"/>
      <point x="62" y="260" type="curve" smooth="yes"/>
      <point x="62" y="139"/>
      <point x="144" y="57"/>
      <point x="307" y="57" type="curve" smooth="yes"/>
      <point x="367" y="57"/>
      <point x="424" y="74"/>
      <point x="471" y="96" type="curve"/>
      <point x="485" y="62"/>
      <point x="510" y="35"/>
      <point x="545" y="17" type="curve" smooth="yes"/>
      <point x="587" y="-6"/>
      <point x="642" y="-18"/>
      <point x="710" y="-18" type="curve" smooth="yes"/>
      <point x="746" y="-18"/>
      <point x="781" y="-15"/>
      <point x="813" y="-10" type="curve"/>
      <point x="837" y="-5"/>
      <point x="852" y="-2"/>
      <point x="880" y="7" type="curve"/>
      <point x="849" y="122" type="line"/>
      <point x="825" y="115"/>
      <point x="810" y="112"/>
      <point x="786" y="108" type="curve" smooth="yes"/>
      <point x="761" y="104"/>
      <point x="729" y="102"/>
      <point x="705" y="102" type="curve" smooth="yes"/>
      <point x="636" y="102"/>
      <point x="598" y="127"/>
      <point x="598" y="174" type="curve" smooth="yes"/>
      <point x="598" y="220"/>
      <point x="638" y="248"/>
      <point x="704" y="248" type="curve" smooth="yes"/>
      <point x="755" y="248"/>
      <point x="803" y="236"/>
      <point x="849" y="223" type="curve"/>
      <point x="880" y="338" type="line"/>
      <point x="817" y="356"/>
      <point x="758" y="360"/>
      <point x="698" y="360" type="curve" smooth="yes"/>
      <point x="677" y="360"/>
      <point x="663" y="358"/>
      <point x="649" y="358" type="curve" smooth="yes"/>
      <point x="625" y="358"/>
      <point x="608" y="372"/>
      <point x="608" y="390" type="curve" smooth="yes"/>
      <point x="608" y="410"/>
      <point x="628" y="425"/>
      <point x="655" y="425" type="curve" smooth="yes"/>
      <point x="858" y="425" type="line"/>
      <point x="858" y="569" type="line"/>
    </contour>
  </outline>
</glyph>
<glyph name="dv_GRYa" format="1">
  <advance width="1029"/>
  <outline>
    <contour>
      <point x="787" y="0" type="line"/>
      <point x="930" y="-16" type="line"/>
      <point x="930" y="569" type="line"/>
      <point x="1040" y="569" type="line"/>
      <point x="1023" y="680" type="line"/>
      <point x="-11" y="680" type="line"/>
      <point x="6" y="569" type="line"/>
      <point x="127" y="569" type="line"/>
      <point x="127" y="332" type="line"/>
      <point x="97" y="332"/>
      <point x="65" y="314"/>
      <point x="59" y="288" type="curve"/>
      <point x="52" y="230"/>
      <point x="134" y="139"/>
      <point x="211" y="139" type="curve" smooth="yes"/>
      <point x="249" y="139"/>
      <point x="269" y="168"/>
      <point x="269" y="213" type="curve" smooth="yes"/>
      <point x="269" y="569" type="line"/>
      <point x="450" y="569" type="line"/>
      <point x="477" y="558"/>
      <point x="498" y="527"/>
      <point x="498" y="493" type="curve" smooth="yes"/>
      <point x="498" y="440"/>
      <point x="469" y="398"/>
      <point x="438" y="388" type="curve"/>
      <point x="413" y="360" type="line"/>
      <point x="413" y="267"/>
      <point x="498" y="183"/>
      <point x="600" y="158" type="curve"/>
      <point x="416" y="21" type="line"/>
      <point x="507" y="-60" type="line"/>
      <point x="787" y="167" type="line"/>
    </contour>
    <contour>
      <point x="666" y="269" type="curve" smooth="yes"/>
      <point x="597" y="269"/>
      <point x="566" y="307"/>
      <point x="547" y="334" type="curve"/>
      <point x="600" y="372"/>
      <point x="624" y="426"/>
      <point x="624" y="486" type="curve" smooth="yes"/>
      <point x="624" y="515"/>
      <point x="615" y="548"/>
      <point x="605" y="569" type="curve"/>
      <point x="787" y="569" type="line"/>
      <point x="787" y="358" type="line"/>
      <point x="779" y="303"/>
      <point x="724" y="269"/>
    </contour>
  </outline>
</glyph>
<glyph name="dv_GhHa" format="1">
  <advance width="938"/>
  <outline>
    <contour>
      <point x="950" y="569" type="line"/>
      <point x="933" y="680" type="line"/>
      <point x="-11" y="680" type="line"/>
      <point x="6" y="569" type="line"/>
      <point x="80" y="569" type="line"/>
      <point x="76" y="554"/>
      <point x="73" y="536"/>
      <point x="73" y="526" type="curve" smooth="yes"/>
      <point x="73" y="480"/>
      <point x="91" y="433"/>
      <point x="120" y="403" type="curve"/>
      <point x="83" y="372"/>
      <point x="62" y="317"/>
      <point x="62" y="260" type="curve" smooth="yes"/>
      <point x="62" y="139"/>
      <point x="144" y="57"/>
      <point x="307" y="57" type="curve" smooth="yes"/>
      <point x="360" y="57"/>
      <point x="411" y="70"/>
      <point x="455" y="88" type="curve"/>
      <point x="470" y="58"/>
      <point x="493" y="34"/>
      <point x="525" y="17" type="curve" smooth="yes"/>
      <point x="567" y="-6"/>
      <point x="622" y="-18"/>
      <point x="690" y="-18" type="curve" smooth="yes"/>
      <point x="726" y="-18"/>
      <point x="761" y="-15"/>
      <point x="793" y="-10" type="curve"/>
      <point x="817" y="-5"/>
      <point x="832" y="-2"/>
      <point x="860" y="7" type="curve"/>
      <point x="829" y="122" type="line"/>
      <point x="805" y="115"/>
      <point x="790" y="112"/>
      <point x="766" y="108" type="curve" smooth="yes"/>
      <point x="741" y="104"/>
      <point x="709" y="102"/>
      <point x="685" y="102" type="curve" smooth="yes"/>
      <point x="616" y="102"/>
      <point x="578" y="127"/>
      <point x="578" y="174" type="curve" smooth="yes"/>
      <point x="578" y="220"/>
      <point x="618" y="248"/>
      <point x="684" y="248" type="curve" smooth="yes"/>
      <point x="735" y="248"/>
      <point x="783" y="236"/>
      <point x="829" y="223" type="curve"/>
      <point x="860" y="338" type="line"/>
      <point x="797" y="356"/>
      <point x="738" y="360"/>
      <point x="678" y="360" type="curve" smooth="yes"/>
      <point x="657" y="360"/>
      <point x="643" y="358"/>
      <point x="629" y="358" type="curve" smooth="yes"/>
      <point x="605" y="358"/>
      <point x="588" y="372"/>
      <point x="588" y="390" type="curve" smooth="yes"/>
      <point x="588" y="410"/>
      <point x="608" y="425"/>
      <point x="635" y="425" type="curve" smooth="yes"/>
      <point x="838" y="425" type="line"/>
      <point x="838" y="569" type="line"/>
    </contour>
    <contour>
      <point x="316" y="182" type="curve" smooth="yes"/>
      <point x="244" y="182"/>
      <point x="202" y="216"/>
      <point x="202" y="263" type="curve" smooth="yes"/>
      <point x="202" y="307"/>
      <point x="237" y="344"/>
      <point x="302" y="344" type="curve" smooth="yes"/>
      <point x="364" y="344" type="line"/>
      <point x="344" y="453" type="line"/>
      <point x="295" y="453" type="line" smooth="yes"/>
      <point x="239" y="453"/>
      <point x="206" y="485"/>
      <point x="206" y="524" type="curve" smooth="yes"/>
      <point x="206" y="541"/>
      <point x="213" y="560"/>
      <point x="225" y="569" type="curve"/>
      <point x="685" y="569" type="line"/>
      <point x="685" y="535" type="line"/>
      <point x="622" y="535" type="line" smooth="yes"/>
      <point x="537" y="535"/>
      <point x="451" y="484"/>
      <point x="451" y="394" type="curve" smooth="yes"/>
      <point x="451" y="360"/>
      <point x="470" y="325"/>
      <point x="500" y="301" type="curve"/>
      <point x="473" y="278"/>
      <point x="454" y="253"/>
      <point x="445" y="223" type="curve"/>
      <point x="404" y="193"/>
      <point x="361" y="182"/>
    </contour>
  </outline>
</glyph>
<glyph name="dv_HLa" format="1">
  <advance width="1310"/>
  <outline>
    <contour>
      <point x="1069" y="0" type="line"/>
      <point x="1210" y="-16" type="line"/>
      <point x="1210" y="569" type="line"/>
      <point x="1321" y="569" type="line"/>
      <point x="1304" y="680" type="line"/>
      <point x="-11" y="680" type="line"/>
      <point x="6" y="569" type="line"/>
      <point x="310" y="569" type="line"/>
      <point x="310" y="535" type="line"/>
      <point x="247" y="535" type="line" smooth="yes"/>
      <point x="162" y="535"/>
      <point x="76" y="484"/>
      <point x="76" y="394" type="curve" smooth="yes"/>
      <point x="76" y="360"/>
      <point x="95" y="325"/>
      <point x="125" y="301" type="curve"/>
      <point x="83" y="266"/>
      <point x="62" y="222"/>
      <point x="62" y="169" type="curve" smooth="yes"/>
      <point x="62" y="102"/>
      <point x="93" y="48"/>
      <point x="150" y="17" type="curve" smooth="yes"/>
      <point x="192" y="-6"/>
      <point x="247" y="-18"/>
      <point x="315" y="-18" type="curve" smooth="yes"/>
      <point x="351" y="-18"/>
      <point x="386" y="-15"/>
      <point x="418" y="-10" type="curve"/>
      <point x="442" y="-5"/>
      <point x="457" y="-2"/>
      <point x="485" y="7" type="curve"/>
      <point x="454" y="122" type="line"/>
      <point x="430" y="115"/>
      <point x="415" y="112"/>
      <point x="391" y="108" type="curve" smooth="yes"/>
      <point x="366" y="104"/>
      <point x="334" y="102"/>
      <point x="310" y="102" type="curve" smooth="yes"/>
      <point x="241" y="102"/>
      <point x="203" y="127"/>
      <point x="203" y="174" type="curve" smooth="yes"/>
      <point x="203" y="220"/>
      <point x="243" y="248"/>
      <point x="309" y="248" type="curve" smooth="yes"/>
      <point x="512" y="248" type="line"/>
      <point x="527" y="173"/>
      <point x="566" y="96"/>
      <point x="629" y="-24" type="curve"/>
      <point x="741" y="14" type="line"/>
      <point x="657" y="183"/>
      <point x="630" y="249"/>
      <point x="630" y="311" type="curve" smooth="yes"/>
      <point x="630" y="350"/>
      <point x="662" y="384"/>
      <point x="710" y="384" type="curve" smooth="yes"/>
      <point x="772" y="384"/>
      <point x="795" y="343"/>
      <point x="795" y="280" type="curve" smooth="yes"/>
      <point x="795" y="145" type="line"/>
      <point x="921" y="132" type="line"/>
      <point x="921" y="280" type="line" smooth="yes"/>
      <point x="921" y="343"/>
      <point x="951" y="387"/>
      <point x="995" y="387" type="curve" smooth="yes"/>
      <point x="1033" y="387"/>
      <point x="1061" y="357"/>
      <point x="1069" y="311" type="curve"/>
    </contour>
    <contour>
      <point x="254" y="358" type="curve" smooth="yes"/>
      <point x="230" y="358"/>
      <point x="213" y="372"/>
      <point x="213" y="390" type="curve" smooth="yes"/>
      <point x="213" y="410"/>
      <point x="233" y="425"/>
      <point x="260" y="425" type="curve" smooth="yes"/>
      <point x="463" y="425" type="line"/>
      <point x="463" y="569" type="line"/>
      <point x="1069" y="569" type="line"/>
      <point x="1069" y="486" type="line"/>
      <point x="1049" y="497"/>
      <point x="1019" y="503"/>
      <point x="996" y="503" type="curve" smooth="yes"/>
      <point x="943" y="503"/>
      <point x="890" y="485"/>
      <point x="856" y="450" type="curve"/>
      <point x="820" y="484"/>
      <point x="766" y="502"/>
      <point x="710" y="503" type="curve"/>
      <point x="615" y="502"/>
      <point x="532" y="439"/>
      <point x="510" y="360" type="curve"/>
      <point x="303" y="360" type="line" smooth="yes"/>
      <point x="282" y="360"/>
      <point x="268" y="358"/>
    </contour>
  </outline>
</glyph>
<glyph name="dv_HLa.MAR" format="1">
  <advance width="1252"/>
  <outline>
    <contour>
      <point x="995" y="384" type="curve" smooth="yes"/>
      <point x="1043" y="384"/>
      <point x="1075" y="350"/>
      <point x="1075" y="311" type="curve" smooth="yes"/>
      <point x="1075" y="249"/>
      <point x="1048" y="183"/>
      <point x="966" y="14" type="curve"/>
      <point x="1076" y="-24" type="line"/>
      <point x="1158" y="134"/>
      <point x="1200" y="217"/>
      <point x="1200" y="319" type="curve" smooth="yes"/>
      <point x="1200" y="392"/>
      <point x="1146" y="460"/>
      <point x="1071" y="488" type="curve"/>
      <point x="1071" y="569" type="line"/>
      <point x="1263" y="569" type="line"/>
      <point x="1247" y="680" type="line"/>
      <point x="-11" y="680" type="line"/>
      <point x="6" y="569" type="line"/>
      <point x="310" y="569" type="line"/>
      <point x="310" y="535" type="line"/>
      <point x="247" y="535" type="line" smooth="yes"/>
      <point x="162" y="535"/>
      <point x="76" y="484"/>
      <point x="76" y="394" type="curve" smooth="yes"/>
      <point x="76" y="360"/>
      <point x="95" y="325"/>
      <point x="125" y="301" type="curve"/>
      <point x="83" y="266"/>
      <point x="62" y="222"/>
      <point x="62" y="169" type="curve" smooth="yes"/>
      <point x="62" y="102"/>
      <point x="93" y="48"/>
      <point x="150" y="17" type="curve" smooth="yes"/>
      <point x="192" y="-6"/>
      <point x="247" y="-18"/>
      <point x="315" y="-18" type="curve" smooth="yes"/>
      <point x="351" y="-18"/>
      <point x="386" y="-15"/>
      <point x="418" y="-10" type="curve"/>
      <point x="442" y="-5"/>
      <point x="457" y="-2"/>
      <point x="485" y="7" type="curve"/>
      <point x="454" y="122" type="line"/>
      <point x="430" y="115"/>
      <point x="415" y="112"/>
      <point x="391" y="108" type="curve" smooth="yes"/>
      <point x="366" y="104"/>
      <point x="334" y="102"/>
      <point x="310" y="102" type="curve" smooth="yes"/>
      <point x="241" y="102"/>
      <point x="203" y="127"/>
      <point x="203" y="174" type="curve" smooth="yes"/>
      <point x="203" y="220"/>
      <point x="243" y="248"/>
      <point x="309" y="248" type="curve" smooth="yes"/>
      <point x="511" y="248" type="line"/>
      <point x="526" y="173"/>
      <point x="565" y="96"/>
      <point x="628" y="-24" type="curve"/>
      <point x="740" y="14" type="line"/>
      <point x="656" y="183"/>
      <point x="629" y="249"/>
      <point x="629" y="311" type="curve" smooth="yes"/>
      <point x="629" y="350"/>
      <point x="661" y="384"/>
      <point x="709" y="384" type="curve" smooth="yes"/>
      <point x="771" y="384"/>
      <point x="794" y="343"/>
      <point x="794" y="280" type="curve" smooth="yes"/>
      <point x="794" y="145" type="line"/>
      <point x="920" y="132" type="line"/>
      <point x="920" y="280" type="line" smooth="yes"/>
      <point x="920" y="343"/>
      <point x="950" y="384"/>
    </contour>
    <contour>
      <point x="929" y="569" type="line"/>
      <point x="929" y="493" type="line"/>
      <point x="900" y="485"/>
      <point x="874" y="470"/>
      <point x="855" y="450" type="curve"/>
      <point x="819" y="484"/>
      <point x="765" y="502"/>
      <point x="709" y="503" type="curve"/>
      <point x="614" y="502"/>
      <point x="531" y="439"/>
      <point x="509" y="360" type="curve"/>
      <point x="303" y="360" type="line" smooth="yes"/>
      <point x="282" y="360"/>
      <point x="268" y="358"/>
      <point x="254" y="358" type="curve" smooth="yes"/>
      <point x="230" y="358"/>
      <point x="213" y="372"/>
      <point x="213" y="390" type="curve" smooth="yes"/>
      <point x="213" y="410"/>
      <point x="233" y="425"/>
      <point x="260" y="425" type="curve" smooth="yes"/>
      <point x="463" y="425" type="line"/>
      <point x="463" y="569" type="line"/>
    </contour>
  </outline>
</glyph>
<glyph name="dv_HMYa" format="1">
  <advance width="1533"/>
  <outline>
    <contour>
      <point x="558" y="248" type="line"/>
      <point x="569" y="181"/>
      <point x="642" y="139"/>
      <point x="706" y="139" type="curve" smooth="yes"/>
      <point x="736" y="139"/>
      <point x="750" y="182"/>
      <point x="750" y="213" type="curve"/>
      <point x="994" y="213" type="line"/>
      <point x="1040" y="175"/>
      <point x="1102" y="151"/>
      <point x="1164" y="151" type="curve" smooth="yes"/>
      <point x="1227" y="151"/>
      <point x="1261" y="164"/>
      <point x="1292" y="178" type="curve"/>
      <point x="1292" y="0" type="line"/>
      <point x="1433" y="-16" type="line"/>
      <point x="1433" y="569" type="line"/>
      <point x="1544" y="569" type="line"/>
      <point x="1527" y="680" type="line"/>
      <point x="-11" y="680" type="line"/>
      <point x="6" y="569" type="line"/>
      <point x="310" y="569" type="line"/>
      <point x="310" y="535" type="line"/>
      <point x="247" y="535" type="line" smooth="yes"/>
      <point x="162" y="535"/>
      <point x="76" y="484"/>
      <point x="76" y="394" type="curve" smooth="yes"/>
      <point x="76" y="360"/>
      <point x="95" y="325"/>
      <point x="125" y="301" type="curve"/>
      <point x="83" y="266"/>
      <point x="62" y="222"/>
      <point x="62" y="169" type="curve" smooth="yes"/>
      <point x="62" y="102"/>
      <point x="93" y="48"/>
      <point x="150" y="17" type="curve" smooth="yes"/>
      <point x="192" y="-6"/>
      <point x="247" y="-18"/>
      <point x="315" y="-18" type="curve" smooth="yes"/>
      <point x="351" y="-18"/>
      <point x="386" y="-15"/>
      <point x="418" y="-10" type="curve"/>
      <point x="442" y="-5"/>
      <point x="457" y="-2"/>
      <point x="485" y="7" type="curve"/>
      <point x="454" y="122" type="line"/>
      <point x="430" y="115"/>
      <point x="415" y="112"/>
      <point x="391" y="108" type="curve" smooth="yes"/>
      <point x="366" y="104"/>
      <point x="334" y="102"/>
      <point x="310" y="102" type="curve" smooth="yes"/>
      <point x="241" y="102"/>
      <point x="203" y="127"/>
      <point x="203" y="174" type="curve" smooth="yes"/>
      <point x="203" y="220"/>
      <point x="243" y="248"/>
      <point x="309" y="248" type="curve" smooth="yes"/>
    </contour>
    <contour>
      <point x="1169" y="269" type="curve" smooth="yes"/>
      <point x="1100" y="269"/>
      <point x="1070" y="307"/>
      <point x="1051" y="334" type="curve"/>
      <point x="1104" y="372"/>
      <point x="1128" y="426"/>
      <point x="1128" y="486" type="curve" smooth="yes"/>
      <point x="1128" y="515"/>
      <point x="1118" y="548"/>
      <point x="1111" y="569" type="curve"/>
      <point x="1292" y="569" type="line"/>
      <point x="1292" y="358" type="line"/>
      <point x="1283" y="303"/>
      <point x="1227" y="269"/>
    </contour>
    <contour>
      <point x="765" y="569" type="line"/>
      <point x="953" y="569" type="line"/>
      <point x="981" y="558"/>
      <point x="1003" y="527"/>
      <point x="1003" y="493" type="curve" smooth="yes"/>
      <point x="1003" y="440"/>
      <point x="973" y="398"/>
      <point x="943" y="388" type="curve"/>
      <point x="917" y="360" type="line"/>
      <point x="917" y="347"/>
      <point x="918" y="335"/>
      <point x="921" y="323" type="curve"/>
      <point x="765" y="323" type="line"/>
    </contour>
    <contour>
      <point x="629" y="569" type="line"/>
      <point x="629" y="360" type="line"/>
      <point x="303" y="360" type="line" smooth="yes"/>
      <point x="282" y="360"/>
      <point x="268" y="358"/>
      <point x="254" y="358" type="curve" smooth="yes"/>
      <point x="230" y="358"/>
      <point x="213" y="372"/>
      <point x="213" y="390" type="curve" smooth="yes"/>
      <point x="213" y="410"/>
      <point x="233" y="425"/>
      <point x="260" y="425" type="curve" smooth="yes"/>
      <point x="463" y="425" type="line"/>
      <point x="463" y="569" type="line"/>
    </contour>
  </outline>
</glyph>
<glyph name="dv_HMa" format="1">
  <advance width="1001"/>
  <outline>
    <contour>
      <point x="761" y="0" type="line"/>
      <point x="902" y="-16" type="line"/>
      <point x="902" y="569" type="line"/>
      <point x="1013" y="569" type="line"/>
      <point x="997" y="680" type="line"/>
      <point x="-11" y="680" type="line"/>
      <point x="6" y="569" type="line"/>
      <point x="310" y="569" type="line"/>
      <point x="310" y="535" type="line"/>
      <point x="247" y="535" type="line" smooth="yes"/>
      <point x="162" y="535"/>
      <point x="76" y="484"/>
      <point x="76" y="394" type="curve" smooth="yes"/>
      <point x="76" y="360"/>
      <point x="95" y="325"/>
      <point x="125" y="301" type="curve"/>
      <point x="83" y="266"/>
      <point x="62" y="222"/>
      <point x="62" y="169" type="curve" smooth="yes"/>
      <point x="62" y="102"/>
      <point x="93" y="48"/>
      <point x="150" y="17" type="curve" smooth="yes"/>
      <point x="192" y="-6"/>
      <point x="247" y="-18"/>
      <point x="315" y="-18" type="curve" smooth="yes"/>
      <point x="351" y="-18"/>
      <point x="386" y="-15"/>
      <point x="418" y="-10" type="curve"/>
      <point x="442" y="-5"/>
      <point x="457" y="-2"/>
      <point x="485" y="7" type="curve"/>
      <point x="454" y="122" type="line"/>
      <point x="430" y="115"/>
      <point x="415" y="112"/>
      <point x="391" y="108" type="curve" smooth="yes"/>
      <point x="366" y="104"/>
      <point x="334" y="102"/>
      <point x="310" y="102" type="curve" smooth="yes"/>
      <point x="241" y="102"/>
      <point x="203" y="127"/>
      <point x="203" y="174" type="curve" smooth="yes"/>
      <point x="203" y="220"/>
      <point x="243" y="248"/>
      <point x="309" y="248" type="curve" smooth="yes"/>
      <point x="340" y="248"/>
      <point x="370" y="244"/>
      <point x="399" y="237" type="curve"/>
      <point x="432" y="201"/>
      <point x="484" y="180"/>
      <point x="521" y="185" type="curve"/>
      <point x="548" y="192"/>
      <point x="560" y="229"/>
      <point x="560" y="259" type="curve"/>
      <point x="761" y="259" type="line"/>
    </contour>
    <contour>
      <point x="761" y="569" type="line"/>
      <point x="761" y="370" type="line"/>
      <point x="440" y="370" type="line" smooth="yes"/>
      <point x="418" y="370"/>
      <point x="400" y="365"/>
      <point x="388" y="356" type="curve"/>
      <point x="359" y="359"/>
      <point x="331" y="360"/>
      <point x="303" y="360" type="curve" smooth="yes"/>
      <point x="282" y="360"/>
      <point x="268" y="358"/>
      <point x="254" y="358" type="curve" smooth="yes"/>
      <point x="230" y="358"/>
      <point x="213" y="372"/>
      <point x="213" y="390" type="curve" smooth="yes"/>
      <point x="213" y="410"/>
      <point x="233" y="425"/>
      <point x="260" y="425" type="curve" smooth="yes"/>
      <point x="463" y="425" type="line"/>
      <point x="463" y="569" type="line"/>
    </contour>
  </outline>
</glyph>
<glyph name="dv_HMatraU" format="1">
  <advance width="563"/>
  <outline>
    <contour>
      <point x="575" y="569" type="line"/>
      <point x="558" y="680" type="line"/>
      <point x="-11" y="680" type="line"/>
      <point x="6" y="569" type="line"/>
      <point x="310" y="569" type="line"/>
      <point x="310" y="535" type="line"/>
      <point x="247" y="535" type="line" smooth="yes"/>
      <point x="162" y="535"/>
      <point x="76" y="484"/>
      <point x="76" y="394" type="curve" smooth="yes"/>
      <point x="76" y="360"/>
      <point x="95" y="325"/>
      <point x="125" y="301" type="curve"/>
      <point x="83" y="266"/>
      <point x="62" y="222"/>
      <point x="62" y="169" type="curve" smooth="yes"/>
      <point x="62" y="102"/>
      <point x="93" y="48"/>
      <point x="150" y="17" type="curve" smooth="yes"/>
      <point x="192" y="-6"/>
      <point x="246" y="-18"/>
      <point x="314" y="-18" type="curve"/>
      <point x="338" y="-23"/>
      <point x="353" y="-41"/>
      <point x="353" y="-64" type="curve" smooth="yes"/>
      <point x="353" y="-91"/>
      <point x="334" y="-111"/>
      <point x="298" y="-111" type="curve" smooth="yes"/>
      <point x="237" y="-111"/>
      <point x="189" y="-58"/>
      <point x="119" y="24" type="curve"/>
      <point x="32" y="-34" type="line"/>
      <point x="106" y="-151"/>
      <point x="200" y="-223"/>
      <point x="297" y="-223" type="curve" smooth="yes"/>
      <point x="391" y="-223"/>
      <point x="470" y="-163"/>
      <point x="470" y="-64" type="curve" smooth="yes"/>
      <point x="470" y="-41"/>
      <point x="464" y="-20"/>
      <point x="454" y="-2" type="curve"/>
      <point x="463" y="0"/>
      <point x="473" y="3"/>
      <point x="485" y="7" type="curve"/>
      <point x="454" y="122" type="line"/>
      <point x="430" y="115"/>
      <point x="415" y="112"/>
      <point x="391" y="108" type="curve" smooth="yes"/>
      <point x="366" y="104"/>
      <point x="334" y="102"/>
      <point x="310" y="102" type="curve" smooth="yes"/>
      <point x="241" y="102"/>
      <point x="203" y="127"/>
      <point x="203" y="174" type="curve" smooth="yes"/>
      <point x="203" y="220"/>
      <point x="243" y="248"/>
      <point x="309" y="248" type="curve" smooth="yes"/>
      <point x="360" y="248"/>
      <point x="408" y="236"/>
      <point x="454" y="223" type="curve"/>
      <point x="485" y="338" type="line"/>
      <point x="422" y="356"/>
      <point x="363" y="360"/>
      <point x="303" y="360" type="curve" smooth="yes"/>
      <point x="282" y="360"/>
      <point x="268" y="358"/>
      <point x="254" y="358" type="curve" smooth="yes"/>
      <point x="230" y="358"/>
      <point x="213" y="372"/>
      <point x="213" y="390" type="curve" smooth="yes"/>
      <point x="213" y="410"/>
      <point x="233" y="425"/>
      <point x="260" y="425" type="curve" smooth="yes"/>
      <point x="463" y="425" type="line"/>
      <point x="463" y="569" type="line"/>
    </contour>
  </outline>
</glyph>
<glyph name="dv_HMatraUu" format="1">
  <advance width="563"/>
  <outline>
    <contour>
      <point x="575" y="569" type="line"/>
      <point x="558" y="680" type="line"/>
      <point x="-11" y="680" type="line"/>
      <point x="6" y="569" type="line"/>
      <point x="310" y="569" type="line"/>
      <point x="310" y="535" type="line"/>
      <point x="247" y="535" type="line" smooth="yes"/>
      <point x="162" y="535"/>
      <point x="76" y="484"/>
      <point x="76" y="394" type="curve" smooth="yes"/>
      <point x="76" y="360"/>
      <point x="95" y="325"/>
      <point x="125" y="301" type="curve"/>
      <point x="83" y="266"/>
      <point x="62" y="222"/>
      <point x="62" y="169" type="curve" smooth="yes"/>
      <point x="62" y="112"/>
      <point x="84" y="64"/>
      <point x="126" y="32" type="curve"/>
      <point x="106" y="7"/>
      <point x="95" y="-25"/>
      <point x="95" y="-64" type="curve" smooth="yes"/>
      <point x="95" y="-165"/>
      <point x="178" y="-223"/>
      <point x="258" y="-223" type="curve" smooth="yes"/>
      <point x="344" y="-223" type="line"/>
      <point x="344" y="-112" type="line"/>
      <point x="268" y="-112" type="line" smooth="yes"/>
      <point x="235" y="-112"/>
      <point x="213" y="-92"/>
      <point x="213" y="-64" type="curve" smooth="yes"/>
      <point x="213" y="-37"/>
      <point x="232" y="-18"/>
      <point x="268" y="-18" type="curve" smooth="yes"/>
      <point x="330" y="-18"/>
      <point x="378" y="-70"/>
      <point x="449" y="-152" type="curve"/>
      <point x="534" y="-94" type="line"/>
      <point x="511" y="-58"/>
      <point x="487" y="-26"/>
      <point x="461" y="0" type="curve"/>
      <point x="485" y="7" type="line"/>
      <point x="454" y="122" type="line"/>
      <point x="430" y="115"/>
      <point x="415" y="112"/>
      <point x="391" y="108" type="curve" smooth="yes"/>
      <point x="366" y="104"/>
      <point x="334" y="102"/>
      <point x="310" y="102" type="curve" smooth="yes"/>
      <point x="241" y="102"/>
      <point x="203" y="127"/>
      <point x="203" y="174" type="curve" smooth="yes"/>
      <point x="203" y="220"/>
      <point x="243" y="248"/>
      <point x="309" y="248" type="curve" smooth="yes"/>
      <point x="360" y="248"/>
      <point x="408" y="236"/>
      <point x="454" y="223" type="curve"/>
      <point x="485" y="338" type="line"/>
      <point x="422" y="356"/>
      <point x="363" y="360"/>
      <point x="303" y="360" type="curve" smooth="yes"/>
      <point x="282" y="360"/>
      <point x="268" y="358"/>
      <point x="254" y="358" type="curve" smooth="yes"/>
      <point x="230" y="358"/>
      <point x="213" y="372"/>
      <point x="213" y="390" type="curve" smooth="yes"/>
      <point x="213" y="410"/>
      <point x="233" y="425"/>
      <point x="260" y="425" type="curve" smooth="yes"/>
      <point x="463" y="425" type="line"/>
      <point x="463" y="569" type="line"/>
    </contour>
  </outline>
</glyph>
<glyph name="dv_HMatraVocalicR" format="1">
  <advance width="563"/>
  <outline>
    <contour>
      <point x="575" y="569" type="line"/>
      <point x="558" y="680" type="line"/>
      <point x="-11" y="680" type="line"/>
      <point x="6" y="569" type="line"/>
      <point x="310" y="569" type="line"/>
      <point x="310" y="535" type="line"/>
      <point x="247" y="535" type="line" smooth="yes"/>
      <point x="162" y="535"/>
      <point x="76" y="484"/>
      <point x="76" y="394" type="curve" smooth="yes"/>
      <point x="76" y="360"/>
      <point x="95" y="325"/>
      <point x="125" y="301" type="curve"/>
      <point x="83" y="266"/>
      <point x="62" y="222"/>
      <point x="62" y="169" type="curve" smooth="yes"/>
      <point x="62" y="102"/>
      <point x="93" y="48"/>
      <point x="150" y="17" type="curve" smooth="yes"/>
      <point x="158" y="12"/>
      <point x="166" y="8"/>
      <point x="175" y="5" type="curve"/>
      <point x="166" y="-15"/>
      <point x="161" y="-38"/>
      <point x="161" y="-64" type="curve" smooth="yes"/>
      <point x="161" y="-164"/>
      <point x="240" y="-222"/>
      <point x="325" y="-222" type="curve" smooth="yes"/>
      <point x="355" y="-222"/>
      <point x="392" y="-222"/>
      <point x="433" y="-208" type="curve"/>
      <point x="409" y="-98" type="line"/>
      <point x="373" y="-110"/>
      <point x="347" y="-112"/>
      <point x="333" y="-112" type="curve" smooth="yes"/>
      <point x="300" y="-112"/>
      <point x="279" y="-91"/>
      <point x="279" y="-64" type="curve" smooth="yes"/>
      <point x="279" y="-40"/>
      <point x="295" y="-22"/>
      <point x="321" y="-18" type="curve"/>
      <point x="355" y="-17"/>
      <point x="388" y="-14"/>
      <point x="418" y="-10" type="curve"/>
      <point x="442" y="-5"/>
      <point x="457" y="-2"/>
      <point x="485" y="7" type="curve"/>
      <point x="454" y="122" type="line"/>
      <point x="430" y="115"/>
      <point x="415" y="112"/>
      <point x="391" y="108" type="curve" smooth="yes"/>
      <point x="366" y="104"/>
      <point x="334" y="102"/>
      <point x="310" y="102" type="curve" smooth="yes"/>
      <point x="241" y="102"/>
      <point x="203" y="127"/>
      <point x="203" y="174" type="curve" smooth="yes"/>
      <point x="203" y="220"/>
      <point x="243" y="248"/>
      <point x="309" y="248" type="curve" smooth="yes"/>
      <point x="360" y="248"/>
      <point x="408" y="236"/>
      <point x="454" y="223" type="curve"/>
      <point x="485" y="338" type="line"/>
      <point x="422" y="356"/>
      <point x="363" y="360"/>
      <point x="303" y="360" type="curve" smooth="yes"/>
      <point x="282" y="360"/>
      <point x="268" y="358"/>
      <point x="254" y="358" type="curve" smooth="yes"/>
      <point x="230" y="358"/>
      <point x="213" y="372"/>
      <point x="213" y="390" type="curve" smooth="yes"/>
      <point x="213" y="410"/>
      <point x="233" y="425"/>
      <point x="260" y="425" type="curve" smooth="yes"/>
      <point x="463" y="425" type="line"/>
      <point x="463" y="569" type="line"/>
    </contour>
  </outline>
</glyph>
<glyph name="dv_HNa" format="1">
  <advance width="849"/>
  <outline>
    <contour>
      <point x="607" y="0" type="line"/>
      <point x="749" y="-16" type="line"/>
      <point x="749" y="569" type="line"/>
      <point x="860" y="569" type="line"/>
      <point x="842" y="680" type="line"/>
      <point x="-11" y="680" type="line"/>
      <point x="6" y="569" type="line"/>
      <point x="310" y="569" type="line"/>
      <point x="310" y="535" type="line"/>
      <point x="247" y="535" type="line" smooth="yes"/>
      <point x="162" y="535"/>
      <point x="76" y="484"/>
      <point x="76" y="394" type="curve" smooth="yes"/>
      <point x="76" y="360"/>
      <point x="95" y="325"/>
      <point x="125" y="301" type="curve"/>
      <point x="83" y="266"/>
      <point x="62" y="222"/>
      <point x="62" y="169" type="curve" smooth="yes"/>
      <point x="62" y="102"/>
      <point x="93" y="48"/>
      <point x="150" y="17" type="curve" smooth="yes"/>
      <point x="192" y="-6"/>
      <point x="247" y="-18"/>
      <point x="315" y="-18" type="curve" smooth="yes"/>
      <point x="337" y="-18" type="line"/>
      <point x="336" y="-35"/>
      <point x="343" y="-52"/>
      <point x="358" y="-65" type="curve" smooth="yes"/>
      <point x="417" y="-117"/>
      <point x="523" y="-81"/>
      <point x="553" y="-32" type="curve" smooth="yes"/>
      <point x="567" y="-8"/>
      <point x="547" y="25"/>
      <point x="525" y="45" type="curve"/>
      <point x="607" y="139" type="line"/>
    </contour>
    <contour>
      <point x="254" y="358" type="curve" smooth="yes"/>
      <point x="230" y="358"/>
      <point x="213" y="372"/>
      <point x="213" y="390" type="curve" smooth="yes"/>
      <point x="213" y="410"/>
      <point x="233" y="425"/>
      <point x="260" y="425" type="curve" smooth="yes"/>
      <point x="463" y="425" type="line"/>
      <point x="463" y="569" type="line"/>
      <point x="607" y="569" type="line"/>
      <point x="607" y="360" type="line"/>
      <point x="303" y="360" type="line" smooth="yes"/>
      <point x="282" y="360"/>
      <point x="268" y="358"/>
    </contour>
    <contour>
      <point x="391" y="108" type="curve" smooth="yes"/>
      <point x="366" y="104"/>
      <point x="334" y="102"/>
      <point x="310" y="102" type="curve" smooth="yes"/>
      <point x="241" y="102"/>
      <point x="203" y="127"/>
      <point x="203" y="174" type="curve" smooth="yes"/>
      <point x="203" y="220"/>
      <point x="243" y="248"/>
      <point x="309" y="248" type="curve" smooth="yes"/>
      <point x="552" y="248" type="line"/>
      <point x="433" y="116" type="line"/>
      <point x="419" y="112"/>
      <point x="407" y="110"/>
    </contour>
  </outline>
</glyph>
<glyph name="dv_HVa" format="1">
  <advance width="1065"/>
  <outline>
    <contour>
      <point x="-11" y="680" type="line"/>
      <point x="6" y="569" type="line"/>
      <point x="310" y="569" type="line"/>
      <point x="310" y="535" type="line"/>
      <point x="247" y="535" type="line" smooth="yes"/>
      <point x="162" y="535"/>
      <point x="76" y="484"/>
      <point x="76" y="394" type="curve" smooth="yes"/>
      <point x="76" y="360"/>
      <point x="95" y="325"/>
      <point x="125" y="301" type="curve"/>
      <point x="83" y="266"/>
      <point x="62" y="222"/>
      <point x="62" y="169" type="curve" smooth="yes"/>
      <point x="62" y="102"/>
      <point x="93" y="48"/>
      <point x="150" y="17" type="curve" smooth="yes"/>
      <point x="192" y="-6"/>
      <point x="247" y="-18"/>
      <point x="315" y="-18" type="curve" smooth="yes"/>
      <point x="351" y="-18"/>
      <point x="386" y="-15"/>
      <point x="418" y="-10" type="curve"/>
      <point x="442" y="-5"/>
      <point x="457" y="-2"/>
      <point x="485" y="7" type="curve"/>
      <point x="454" y="122" type="line"/>
      <point x="430" y="115"/>
      <point x="415" y="112"/>
      <point x="391" y="108" type="curve" smooth="yes"/>
      <point x="366" y="104"/>
      <point x="334" y="102"/>
      <point x="310" y="102" type="curve" smooth="yes"/>
      <point x="241" y="102"/>
      <point x="203" y="127"/>
      <point x="203" y="174" type="curve" smooth="yes"/>
      <point x="203" y="220"/>
      <point x="243" y="248"/>
      <point x="309" y="248" type="curve" smooth="yes"/>
      <point x="482" y="248" type="line"/>
      <point x="495" y="139"/>
      <point x="584" y="59"/>
      <point x="713" y="59" type="curve" smooth="yes"/>
      <point x="748" y="59"/>
      <point x="806" y="77"/>
      <point x="825" y="99" type="curve"/>
      <point x="825" y="0" type="line"/>
      <point x="966" y="-16" type="line"/>
      <point x="966" y="569" type="line"/>
      <point x="1076" y="569" type="line"/>
      <point x="1060" y="680" type="line"/>
    </contour>
    <contour>
      <point x="825" y="569" type="line"/>
      <point x="825" y="458" type="line"/>
      <point x="806" y="479"/>
      <point x="748" y="497"/>
      <point x="713" y="497" type="curve" smooth="yes"/>
      <point x="606" y="497"/>
      <point x="526" y="441"/>
      <point x="495" y="360" type="curve"/>
      <point x="303" y="360" type="line" smooth="yes"/>
      <point x="282" y="360"/>
      <point x="268" y="358"/>
      <point x="254" y="358" type="curve" smooth="yes"/>
      <point x="230" y="358"/>
      <point x="213" y="372"/>
      <point x="213" y="390" type="curve" smooth="yes"/>
      <point x="213" y="410"/>
      <point x="233" y="425"/>
      <point x="260" y="425" type="curve" smooth="yes"/>
      <point x="463" y="425" type="line"/>
      <point x="463" y="569" type="line"/>
    </contour>
    <contour>
      <point x="720" y="176" type="curve" smooth="yes"/>
      <point x="667" y="176"/>
      <point x="613" y="218"/>
      <point x="613" y="277" type="curve" smooth="yes"/>
      <point x="613" y="338"/>
      <point x="667" y="380"/>
      <point x="720" y="380" type="curve" smooth="yes"/>
      <point x="770" y="380"/>
      <point x="806" y="354"/>
      <point x="825" y="325" type="curve"/>
      <point x="825" y="230" type="line"/>
      <point x="806" y="202"/>
      <point x="770" y="176"/>
    </contour>
  </outline>
</glyph>
<glyph name="dv_HYa" format="1">
  <advance width="1130"/>
  <outline>
    <contour>
      <point x="529" y="425" type="line" smooth="yes"/>
      <point x="558" y="425"/>
      <point x="599" y="421"/>
      <point x="599" y="401" type="curve" smooth="yes"/>
      <point x="599" y="376"/>
      <point x="570" y="379"/>
      <point x="540" y="370" type="curve"/>
      <point x="515" y="340" type="line"/>
      <point x="515" y="230"/>
      <point x="636" y="133"/>
      <point x="762" y="133" type="curve" smooth="yes"/>
      <point x="825" y="133"/>
      <point x="860" y="145"/>
      <point x="889" y="159" type="curve"/>
      <point x="889" y="0" type="line"/>
      <point x="1030" y="-16" type="line"/>
      <point x="1030" y="569" type="line"/>
      <point x="1142" y="569" type="line"/>
      <point x="1125" y="680" type="line"/>
      <point x="-11" y="680" type="line"/>
      <point x="6" y="569" type="line"/>
      <point x="310" y="569" type="line"/>
      <point x="310" y="535" type="line"/>
      <point x="247" y="535" type="line" smooth="yes"/>
      <point x="162" y="535"/>
      <point x="76" y="484"/>
      <point x="76" y="394" type="curve" smooth="yes"/>
      <point x="76" y="360"/>
      <point x="95" y="325"/>
      <point x="125" y="301" type="curve"/>
      <point x="83" y="266"/>
      <point x="62" y="222"/>
      <point x="62" y="169" type="curve" smooth="yes"/>
      <point x="62" y="102"/>
      <point x="93" y="48"/>
      <point x="150" y="17" type="curve" smooth="yes"/>
      <point x="192" y="-6"/>
      <point x="247" y="-18"/>
      <point x="315" y="-18" type="curve" smooth="yes"/>
      <point x="351" y="-18"/>
      <point x="386" y="-15"/>
      <point x="418" y="-10" type="curve"/>
      <point x="442" y="-5"/>
      <point x="457" y="-2"/>
      <point x="485" y="7" type="curve"/>
      <point x="454" y="122" type="line"/>
      <point x="430" y="115"/>
      <point x="415" y="112"/>
      <point x="391" y="108" type="curve" smooth="yes"/>
      <point x="366" y="104"/>
      <point x="334" y="102"/>
      <point x="310" y="102" type="curve" smooth="yes"/>
      <point x="241" y="102"/>
      <point x="203" y="127"/>
      <point x="203" y="174" type="curve" smooth="yes"/>
      <point x="203" y="220"/>
      <point x="243" y="248"/>
      <point x="309" y="248" type="curve" smooth="yes"/>
      <point x="360" y="248"/>
      <point x="408" y="236"/>
      <point x="454" y="223" type="curve"/>
      <point x="485" y="338" type="line"/>
      <point x="422" y="356"/>
      <point x="363" y="360"/>
      <point x="303" y="360" type="curve" smooth="yes"/>
      <point x="282" y="360"/>
      <point x="268" y="358"/>
      <point x="254" y="358" type="curve" smooth="yes"/>
      <point x="230" y="358"/>
      <point x="213" y="372"/>
      <point x="213" y="390" type="curve" smooth="yes"/>
      <point x="213" y="410"/>
      <point x="233" y="425"/>
      <point x="260" y="425" type="curve" smooth="yes"/>
    </contour>
    <contour>
      <point x="889" y="569" type="line"/>
      <point x="889" y="339" type="line"/>
      <point x="880" y="284"/>
      <point x="825" y="250"/>
      <point x="767" y="250" type="curve" smooth="yes"/>
      <point x="699" y="250"/>
      <point x="667" y="288"/>
      <point x="648" y="316" type="curve"/>
      <point x="690" y="341"/>
      <point x="725" y="365"/>
      <point x="725" y="426" type="curve" smooth="yes"/>
      <point x="725" y="476"/>
      <point x="678" y="530"/>
      <point x="582" y="530" type="curve" smooth="yes"/>
      <point x="463" y="530" type="line"/>
      <point x="463" y="569" type="line"/>
    </contour>
  </outline>
</glyph>
<glyph name="dv_JhHa" format="1">
  <advance width="1146"/>
  <outline>
    <contour>
      <point x="1157" y="569" type="line"/>
      <point x="1140" y="680" type="line"/>
      <point x="-11" y="680" type="line"/>
      <point x="6" y="569" type="line"/>
      <point x="321" y="569" type="line"/>
      <point x="321" y="524" type="line"/>
      <point x="223" y="524" type="line" smooth="yes"/>
      <point x="125" y="524"/>
      <point x="50" y="470"/>
      <point x="50" y="369" type="curve" smooth="yes"/>
      <point x="50" y="272"/>
      <point x="137" y="213"/>
      <point x="224" y="213" type="curve" smooth="yes"/>
      <point x="316" y="213" type="line" smooth="yes"/>
      <point x="360" y="213"/>
      <point x="375" y="190"/>
      <point x="375" y="162" type="curve" smooth="yes"/>
      <point x="375" y="129"/>
      <point x="338" y="101"/>
      <point x="281" y="100" type="curve" smooth="yes"/>
      <point x="264" y="100"/>
      <point x="248" y="101"/>
      <point x="234" y="103" type="curve"/>
      <point x="217" y="146"/>
      <point x="171" y="182"/>
      <point x="119" y="182" type="curve" smooth="yes"/>
      <point x="80" y="182"/>
      <point x="51" y="156"/>
      <point x="51" y="118" type="curve" smooth="yes"/>
      <point x="51" y="60"/>
      <point x="101" y="20"/>
      <point x="142" y="0" type="curve"/>
      <point x="267" y="-168" type="line"/>
      <point x="360" y="-102" type="line"/>
      <point x="349" y="-87"/>
      <point x="327" y="-61"/>
      <point x="292" y="-17" type="curve" smooth="yes"/>
      <point x="291" y="-15" type="line"/>
      <point x="433" y="-11"/>
      <point x="519" y="71"/>
      <point x="519" y="162" type="curve" smooth="yes"/>
      <point x="519" y="164"/>
      <point x="518" y="167"/>
      <point x="518" y="170" type="curve"/>
      <point x="644" y="170" type="line"/>
      <point x="644" y="169" type="line"/>
      <point x="644" y="102"/>
      <point x="675" y="48"/>
      <point x="732" y="17" type="curve" smooth="yes"/>
      <point x="774" y="-6"/>
      <point x="829" y="-18"/>
      <point x="897" y="-18" type="curve" smooth="yes"/>
      <point x="933" y="-18"/>
      <point x="968" y="-15"/>
      <point x="1000" y="-10" type="curve"/>
      <point x="1024" y="-5"/>
      <point x="1039" y="-2"/>
      <point x="1067" y="7" type="curve"/>
      <point x="1036" y="122" type="line"/>
      <point x="1012" y="115"/>
      <point x="997" y="112"/>
      <point x="973" y="108" type="curve" smooth="yes"/>
      <point x="948" y="104"/>
      <point x="916" y="102"/>
      <point x="892" y="102" type="curve" smooth="yes"/>
      <point x="823" y="102"/>
      <point x="785" y="127"/>
      <point x="785" y="174" type="curve" smooth="yes"/>
      <point x="785" y="220"/>
      <point x="825" y="248"/>
      <point x="891" y="248" type="curve" smooth="yes"/>
      <point x="942" y="248"/>
      <point x="990" y="236"/>
      <point x="1036" y="223" type="curve"/>
      <point x="1067" y="338" type="line"/>
      <point x="1004" y="356"/>
      <point x="945" y="360"/>
      <point x="885" y="360" type="curve" smooth="yes"/>
      <point x="864" y="360"/>
      <point x="850" y="358"/>
      <point x="836" y="358" type="curve" smooth="yes"/>
      <point x="812" y="358"/>
      <point x="795" y="372"/>
      <point x="795" y="390" type="curve" smooth="yes"/>
      <point x="795" y="410"/>
      <point x="815" y="425"/>
      <point x="842" y="425" type="curve" smooth="yes"/>
      <point x="1045" y="425" type="line"/>
      <point x="1045" y="569" type="line"/>
    </contour>
    <contour>
      <point x="479" y="272" type="line"/>
      <point x="442" y="312"/>
      <point x="381" y="330"/>
      <point x="308" y="330" type="curve" smooth="yes"/>
      <point x="229" y="330" type="line" smooth="yes"/>
      <point x="202" y="330"/>
      <point x="182" y="349"/>
      <point x="182" y="369" type="curve" smooth="yes"/>
      <point x="182" y="389"/>
      <point x="199" y="406"/>
      <point x="227" y="406" type="curve" smooth="yes"/>
      <point x="459" y="406" type="line"/>
      <point x="459" y="569" type="line"/>
      <point x="892" y="569" type="line"/>
      <point x="892" y="535" type="line"/>
      <point x="829" y="535" type="line" smooth="yes"/>
      <point x="744" y="535"/>
      <point x="658" y="484"/>
      <point x="658" y="394" type="curve" smooth="yes"/>
      <point x="658" y="360"/>
      <point x="677" y="325"/>
      <point x="707" y="301" type="curve"/>
      <point x="696" y="292"/>
      <point x="686" y="282"/>
      <point x="678" y="272" type="curve"/>
    </contour>
  </outline>
</glyph>
<glyph name="dv_KHa" format="1">
  <advance width="1182"/>
  <outline>
    <contour>
      <point x="1194" y="569" type="line"/>
      <point x="1177" y="680" type="line"/>
      <point x="-11" y="680" type="line"/>
      <point x="6" y="569" type="line"/>
      <point x="385" y="569" type="line"/>
      <point x="385" y="464" type="line"/>
      <point x="358" y="484"/>
      <point x="308" y="498"/>
      <point x="273" y="498" type="curve" smooth="yes"/>
      <point x="133" y="498"/>
      <point x="40" y="403"/>
      <point x="40" y="278" type="curve" smooth="yes"/>
      <point x="40" y="154"/>
      <point x="133" y="59"/>
      <point x="273" y="59" type="curve" smooth="yes"/>
      <point x="308" y="59"/>
      <point x="358" y="73"/>
      <point x="385" y="93" type="curve"/>
      <point x="385" y="0" type="line"/>
      <point x="526" y="-16" type="line"/>
      <point x="526" y="324" type="line"/>
      <point x="544" y="352"/>
      <point x="568" y="381"/>
      <point x="637" y="381" type="curve" smooth="yes"/>
      <point x="696" y="381" type="line"/>
      <point x="700" y="351"/>
      <point x="717" y="322"/>
      <point x="744" y="301" type="curve"/>
      <point x="702" y="266"/>
      <point x="681" y="222"/>
      <point x="681" y="169" type="curve" smooth="yes"/>
      <point x="681" y="102"/>
      <point x="712" y="48"/>
      <point x="769" y="17" type="curve" smooth="yes"/>
      <point x="811" y="-6"/>
      <point x="866" y="-18"/>
      <point x="934" y="-18" type="curve" smooth="yes"/>
      <point x="970" y="-18"/>
      <point x="1005" y="-15"/>
      <point x="1037" y="-10" type="curve"/>
      <point x="1061" y="-5"/>
      <point x="1076" y="-2"/>
      <point x="1104" y="7" type="curve"/>
      <point x="1073" y="122" type="line"/>
      <point x="1049" y="115"/>
      <point x="1034" y="112"/>
      <point x="1010" y="108" type="curve" smooth="yes"/>
      <point x="985" y="104"/>
      <point x="953" y="102"/>
      <point x="929" y="102" type="curve" smooth="yes"/>
      <point x="860" y="102"/>
      <point x="822" y="127"/>
      <point x="822" y="174" type="curve" smooth="yes"/>
      <point x="822" y="220"/>
      <point x="862" y="248"/>
      <point x="928" y="248" type="curve" smooth="yes"/>
      <point x="979" y="248"/>
      <point x="1027" y="236"/>
      <point x="1073" y="223" type="curve"/>
      <point x="1104" y="338" type="line"/>
      <point x="1041" y="356"/>
      <point x="982" y="360"/>
      <point x="922" y="360" type="curve" smooth="yes"/>
      <point x="901" y="360"/>
      <point x="887" y="358"/>
      <point x="873" y="358" type="curve" smooth="yes"/>
      <point x="849" y="358"/>
      <point x="832" y="372"/>
      <point x="832" y="390" type="curve" smooth="yes"/>
      <point x="832" y="410"/>
      <point x="852" y="425"/>
      <point x="879" y="425" type="curve" smooth="yes"/>
      <point x="1082" y="425" type="line"/>
      <point x="1082" y="569" type="line"/>
    </contour>
    <contour>
      <point x="271" y="176" type="curve" smooth="yes"/>
      <point x="218" y="177"/>
      <point x="173" y="218"/>
      <point x="173" y="279" type="curve" smooth="yes"/>
      <point x="173" y="339"/>
      <point x="218" y="381"/>
      <point x="271" y="381" type="curve" smooth="yes"/>
      <point x="342" y="381"/>
      <point x="366" y="349"/>
      <point x="385" y="321" type="curve"/>
      <point x="385" y="237" type="line"/>
      <point x="366" y="208"/>
      <point x="342" y="175"/>
    </contour>
    <contour>
      <point x="526" y="461" type="curve"/>
      <point x="526" y="569" type="line"/>
      <point x="929" y="569" type="line"/>
      <point x="929" y="535" type="line"/>
      <point x="866" y="535" type="line" smooth="yes"/>
      <point x="820" y="535"/>
      <point x="774" y="520"/>
      <point x="741" y="492" type="curve"/>
      <point x="634" y="492" type="line" smooth="yes"/>
      <point x="583" y="492"/>
      <point x="550" y="479"/>
    </contour>
  </outline>
</glyph>
<glyph name="dv_LHYa" format="1">
  <advance width="1647"/>
  <outline>
    <contour>
      <point x="827" y="569" type="line"/>
      <point x="827" y="535" type="line"/>
      <point x="764" y="535" type="line" smooth="yes"/>
      <point x="712" y="535"/>
      <point x="660" y="516"/>
      <point x="627" y="481" type="curve"/>
      <point x="607" y="493"/>
      <point x="572" y="503"/>
      <point x="543" y="503" type="curve" smooth="yes"/>
      <point x="490" y="503"/>
      <point x="437" y="485"/>
      <point x="403" y="450" type="curve"/>
      <point x="367" y="484"/>
      <point x="313" y="502"/>
      <point x="257" y="503" type="curve"/>
      <point x="146" y="502"/>
      <point x="52" y="416"/>
      <point x="52" y="319" type="curve" smooth="yes"/>
      <point x="52" y="217"/>
      <point x="93" y="134"/>
      <point x="176" y="-24" type="curve"/>
      <point x="288" y="14" type="line"/>
      <point x="204" y="183"/>
      <point x="177" y="249"/>
      <point x="177" y="311" type="curve" smooth="yes"/>
      <point x="177" y="350"/>
      <point x="209" y="384"/>
      <point x="257" y="384" type="curve" smooth="yes"/>
      <point x="319" y="384"/>
      <point x="342" y="343"/>
      <point x="342" y="280" type="curve" smooth="yes"/>
      <point x="342" y="145" type="line"/>
      <point x="468" y="132" type="line"/>
      <point x="468" y="280" type="line" smooth="yes"/>
      <point x="468" y="343"/>
      <point x="498" y="387"/>
      <point x="542" y="387" type="curve" smooth="yes"/>
      <point x="570" y="387"/>
      <point x="594" y="370"/>
      <point x="606" y="342" type="curve"/>
      <point x="606" y="343" type="line"/>
      <point x="615" y="327"/>
      <point x="627" y="313"/>
      <point x="642" y="301" type="curve"/>
      <point x="600" y="266"/>
      <point x="579" y="222"/>
      <point x="579" y="169" type="curve" smooth="yes"/>
      <point x="579" y="102"/>
      <point x="610" y="48"/>
      <point x="667" y="17" type="curve" smooth="yes"/>
      <point x="709" y="-6"/>
      <point x="764" y="-18"/>
      <point x="832" y="-18" type="curve" smooth="yes"/>
      <point x="893" y="-18"/>
      <point x="949" y="-11"/>
      <point x="1002" y="7" type="curve"/>
      <point x="971" y="122" type="line"/>
      <point x="922" y="108"/>
      <point x="874" y="102"/>
      <point x="827" y="102" type="curve" smooth="yes"/>
      <point x="758" y="102"/>
      <point x="720" y="127"/>
      <point x="720" y="174" type="curve" smooth="yes"/>
      <point x="720" y="220"/>
      <point x="760" y="248"/>
      <point x="826" y="248" type="curve" smooth="yes"/>
      <point x="877" y="248"/>
      <point x="925" y="236"/>
      <point x="971" y="223" type="curve"/>
      <point x="1002" y="338" type="line"/>
      <point x="939" y="356"/>
      <point x="880" y="360"/>
      <point x="820" y="360" type="curve" smooth="yes"/>
      <point x="799" y="360"/>
      <point x="785" y="358"/>
      <point x="771" y="358" type="curve" smooth="yes"/>
      <point x="747" y="358"/>
      <point x="730" y="372"/>
      <point x="730" y="390" type="curve" smooth="yes"/>
      <point x="730" y="410"/>
      <point x="750" y="425"/>
      <point x="777" y="425" type="curve" smooth="yes"/>
      <point x="1046" y="425" type="line" smooth="yes"/>
      <point x="1075" y="425"/>
      <point x="1117" y="421"/>
      <point x="1117" y="401" type="curve" smooth="yes"/>
      <point x="1117" y="376"/>
      <point x="1087" y="379"/>
      <point x="1057" y="370" type="curve"/>
      <point x="1032" y="340" type="line"/>
      <point x="1032" y="230"/>
      <point x="1154" y="133"/>
      <point x="1279" y="133" type="curve" smooth="yes"/>
      <point x="1343" y="133"/>
      <point x="1377" y="145"/>
      <point x="1407" y="159" type="curve"/>
      <point x="1407" y="0" type="line"/>
      <point x="1548" y="-16" type="line"/>
      <point x="1548" y="569" type="line"/>
      <point x="1659" y="569" type="line"/>
      <point x="1641" y="680" type="line"/>
      <point x="-11" y="680" type="line"/>
      <point x="6" y="569" type="line"/>
    </contour>
    <contour>
      <point x="1407" y="569" type="line"/>
      <point x="1407" y="339" type="line"/>
      <point x="1397" y="284"/>
      <point x="1343" y="250"/>
      <point x="1284" y="250" type="curve" smooth="yes"/>
      <point x="1215" y="250"/>
      <point x="1184" y="288"/>
      <point x="1165" y="316" type="curve"/>
      <point x="1208" y="341"/>
      <point x="1243" y="365"/>
      <point x="1243" y="426" type="curve" smooth="yes"/>
      <point x="1243" y="476"/>
      <point x="1196" y="530"/>
      <point x="1100" y="530" type="curve" smooth="yes"/>
      <point x="980" y="530" type="line"/>
      <point x="980" y="569" type="line"/>
    </contour>
  </outline>
</glyph>
<glyph name="dv_LHa" format="1">
  <advance width="1080"/>
  <outline>
    <contour>
      <point x="1092" y="569" type="line"/>
      <point x="1075" y="680" type="line"/>
      <point x="-11" y="680" type="line"/>
      <point x="6" y="569" type="line"/>
      <point x="827" y="569" type="line"/>
      <point x="827" y="535" type="line"/>
      <point x="764" y="535" type="line" smooth="yes"/>
      <point x="710" y="535"/>
      <point x="656" y="514"/>
      <point x="623" y="476" type="curve"/>
      <point x="597" y="492"/>
      <point x="567" y="502"/>
      <point x="533" y="502" type="curve" smooth="yes"/>
      <point x="480" y="502"/>
      <point x="437" y="485"/>
      <point x="403" y="450" type="curve"/>
      <point x="367" y="484"/>
      <point x="313" y="502"/>
      <point x="257" y="503" type="curve"/>
      <point x="146" y="502"/>
      <point x="52" y="416"/>
      <point x="52" y="319" type="curve" smooth="yes"/>
      <point x="52" y="217"/>
      <point x="93" y="134"/>
      <point x="176" y="-24" type="curve"/>
      <point x="288" y="14" type="line"/>
      <point x="204" y="183"/>
      <point x="177" y="249"/>
      <point x="177" y="311" type="curve" smooth="yes"/>
      <point x="177" y="350"/>
      <point x="209" y="384"/>
      <point x="257" y="384" type="curve" smooth="yes"/>
      <point x="319" y="384"/>
      <point x="342" y="343"/>
      <point x="342" y="280" type="curve" smooth="yes"/>
      <point x="342" y="145" type="line"/>
      <point x="468" y="132" type="line"/>
      <point x="468" y="280" type="line" smooth="yes"/>
      <point x="468" y="343"/>
      <point x="498" y="387"/>
      <point x="542" y="387" type="curve" smooth="yes"/>
      <point x="570" y="387"/>
      <point x="593" y="370"/>
      <point x="605" y="344" type="curve"/>
      <point x="606" y="344" type="line"/>
      <point x="614" y="328"/>
      <point x="627" y="313"/>
      <point x="642" y="301" type="curve"/>
      <point x="600" y="266"/>
      <point x="579" y="222"/>
      <point x="579" y="169" type="curve" smooth="yes"/>
      <point x="579" y="102"/>
      <point x="610" y="48"/>
      <point x="667" y="17" type="curve" smooth="yes"/>
      <point x="709" y="-6"/>
      <point x="764" y="-18"/>
      <point x="832" y="-18" type="curve" smooth="yes"/>
      <point x="868" y="-18"/>
      <point x="903" y="-15"/>
      <point x="935" y="-10" type="curve"/>
      <point x="959" y="-5"/>
      <point x="974" y="-2"/>
      <point x="1002" y="7" type="curve"/>
      <point x="971" y="122" type="line"/>
      <point x="947" y="115"/>
      <point x="932" y="112"/>
      <point x="908" y="108" type="curve" smooth="yes"/>
      <point x="883" y="104"/>
      <point x="851" y="102"/>
      <point x="827" y="102" type="curve" smooth="yes"/>
      <point x="758" y="102"/>
      <point x="720" y="127"/>
      <point x="720" y="174" type="curve" smooth="yes"/>
      <point x="720" y="220"/>
      <point x="760" y="248"/>
      <point x="826" y="248" type="curve" smooth="yes"/>
      <point x="877" y="248"/>
      <point x="925" y="236"/>
      <point x="971" y="223" type="curve"/>
      <point x="1002" y="338" type="line"/>
      <point x="939" y="356"/>
      <point x="880" y="360"/>
      <point x="820" y="360" type="curve" smooth="yes"/>
      <point x="799" y="360"/>
      <point x="785" y="358"/>
      <point x="771" y="358" type="curve" smooth="yes"/>
      <point x="747" y="358"/>
      <point x="730" y="372"/>
      <point x="730" y="390" type="curve" smooth="yes"/>
      <point x="730" y="410"/>
      <point x="750" y="425"/>
      <point x="777" y="425" type="curve" smooth="yes"/>
      <point x="980" y="425" type="line"/>
      <point x="980" y="569" type="line"/>
    </contour>
  </outline>
</glyph>
<glyph name="dv_MHa" format="1">
  <advance width="913"/>
  <outline>
    <contour>
      <point x="925" y="569" type="line"/>
      <point x="908" y="680" type="line"/>
      <point x="-11" y="680" type="line"/>
      <point x="6" y="569" type="line"/>
      <point x="111" y="569" type="line"/>
      <point x="111" y="323" type="line"/>
      <point x="69" y="323"/>
      <point x="40" y="304"/>
      <point x="40" y="265" type="curve" smooth="yes"/>
      <point x="40" y="188"/>
      <point x="120" y="139"/>
      <point x="189" y="139" type="curve" smooth="yes"/>
      <point x="219" y="139"/>
      <point x="232" y="182"/>
      <point x="232" y="213" type="curve"/>
      <point x="417" y="213" type="line"/>
      <point x="413" y="199"/>
      <point x="412" y="184"/>
      <point x="412" y="169" type="curve" smooth="yes"/>
      <point x="412" y="102"/>
      <point x="443" y="48"/>
      <point x="500" y="17" type="curve" smooth="yes"/>
      <point x="542" y="-6"/>
      <point x="597" y="-18"/>
      <point x="665" y="-18" type="curve" smooth="yes"/>
      <point x="701" y="-18"/>
      <point x="736" y="-15"/>
      <point x="768" y="-10" type="curve"/>
      <point x="792" y="-5"/>
      <point x="807" y="-2"/>
      <point x="835" y="7" type="curve"/>
      <point x="804" y="122" type="line"/>
      <point x="780" y="115"/>
      <point x="765" y="112"/>
      <point x="741" y="108" type="curve" smooth="yes"/>
      <point x="716" y="104"/>
      <point x="684" y="102"/>
      <point x="660" y="102" type="curve" smooth="yes"/>
      <point x="591" y="102"/>
      <point x="553" y="127"/>
      <point x="553" y="174" type="curve" smooth="yes"/>
      <point x="553" y="220"/>
      <point x="593" y="248"/>
      <point x="659" y="248" type="curve" smooth="yes"/>
      <point x="710" y="248"/>
      <point x="758" y="236"/>
      <point x="804" y="223" type="curve"/>
      <point x="835" y="338" type="line"/>
      <point x="772" y="356"/>
      <point x="713" y="360"/>
      <point x="653" y="360" type="curve" smooth="yes"/>
      <point x="632" y="360"/>
      <point x="618" y="358"/>
      <point x="604" y="358" type="curve" smooth="yes"/>
      <point x="580" y="358"/>
      <point x="563" y="372"/>
      <point x="563" y="390" type="curve" smooth="yes"/>
      <point x="563" y="410"/>
      <point x="583" y="425"/>
      <point x="610" y="425" type="curve" smooth="yes"/>
      <point x="813" y="425" type="line"/>
      <point x="813" y="569" type="line"/>
    </contour>
    <contour>
      <point x="247" y="569" type="line"/>
      <point x="660" y="569" type="line"/>
      <point x="660" y="535" type="line"/>
      <point x="597" y="535" type="line" smooth="yes"/>
      <point x="512" y="535"/>
      <point x="426" y="484"/>
      <point x="426" y="394" type="curve" smooth="yes"/>
      <point x="426" y="369"/>
      <point x="435" y="344"/>
      <point x="452" y="323" type="curve"/>
      <point x="247" y="323" type="line"/>
    </contour>
  </outline>
</glyph>
<glyph name="dv_NHYa" format="1">
  <advance width="1455"/>
  <outline>
    <contour>
      <point x="6" y="569" type="line"/>
      <point x="636" y="569" type="line"/>
      <point x="636" y="535" type="line"/>
      <point x="573" y="535" type="line" smooth="yes"/>
      <point x="488" y="535"/>
      <point x="402" y="484"/>
      <point x="402" y="394" type="curve" smooth="yes"/>
      <point x="402" y="390"/>
      <point x="402" y="386"/>
      <point x="403" y="382" type="curve"/>
      <point x="104" y="382" type="line" smooth="yes"/>
      <point x="59" y="382"/>
      <point x="31" y="362"/>
      <point x="31" y="324" type="curve" smooth="yes"/>
      <point x="31" y="246"/>
      <point x="127" y="190"/>
      <point x="185" y="197" type="curve"/>
      <point x="212" y="204"/>
      <point x="224" y="241"/>
      <point x="224" y="271" type="curve"/>
      <point x="422" y="271" type="line"/>
      <point x="399" y="242"/>
      <point x="388" y="208"/>
      <point x="388" y="169" type="curve" smooth="yes"/>
      <point x="388" y="102"/>
      <point x="419" y="48"/>
      <point x="476" y="17" type="curve" smooth="yes"/>
      <point x="518" y="-6"/>
      <point x="573" y="-18"/>
      <point x="641" y="-18" type="curve" smooth="yes"/>
      <point x="677" y="-18"/>
      <point x="712" y="-15"/>
      <point x="744" y="-10" type="curve"/>
      <point x="768" y="-5"/>
      <point x="783" y="-2"/>
      <point x="811" y="7" type="curve"/>
      <point x="780" y="122" type="line"/>
      <point x="756" y="115"/>
      <point x="741" y="112"/>
      <point x="717" y="108" type="curve" smooth="yes"/>
      <point x="692" y="104"/>
      <point x="660" y="102"/>
      <point x="636" y="102" type="curve" smooth="yes"/>
      <point x="567" y="102"/>
      <point x="529" y="127"/>
      <point x="529" y="174" type="curve" smooth="yes"/>
      <point x="529" y="220"/>
      <point x="569" y="248"/>
      <point x="635" y="248" type="curve" smooth="yes"/>
      <point x="686" y="248"/>
      <point x="734" y="236"/>
      <point x="780" y="223" type="curve"/>
      <point x="811" y="338" type="line"/>
      <point x="748" y="356"/>
      <point x="689" y="360"/>
      <point x="629" y="360" type="curve" smooth="yes"/>
      <point x="608" y="360"/>
      <point x="594" y="358"/>
      <point x="580" y="358" type="curve" smooth="yes"/>
      <point x="556" y="358"/>
      <point x="539" y="372"/>
      <point x="539" y="390" type="curve" smooth="yes"/>
      <point x="539" y="410"/>
      <point x="559" y="425"/>
      <point x="586" y="425" type="curve" smooth="yes"/>
      <point x="853" y="425" type="line" smooth="yes"/>
      <point x="883" y="425"/>
      <point x="925" y="421"/>
      <point x="925" y="401" type="curve" smooth="yes"/>
      <point x="925" y="376"/>
      <point x="895" y="379"/>
      <point x="865" y="370" type="curve"/>
      <point x="839" y="340" type="line"/>
      <point x="839" y="230"/>
      <point x="963" y="133"/>
      <point x="1087" y="133" type="curve" smooth="yes"/>
      <point x="1150" y="133"/>
      <point x="1184" y="145"/>
      <point x="1215" y="159" type="curve"/>
      <point x="1215" y="0" type="line"/>
      <point x="1355" y="-16" type="line"/>
      <point x="1355" y="569" type="line"/>
      <point x="1467" y="569" type="line"/>
      <point x="1450" y="680" type="line"/>
      <point x="-11" y="680" type="line"/>
    </contour>
    <contour>
      <point x="1215" y="569" type="line"/>
      <point x="1215" y="339" type="line"/>
      <point x="1206" y="284"/>
      <point x="1150" y="250"/>
      <point x="1092" y="250" type="curve" smooth="yes"/>
      <point x="1023" y="250"/>
      <point x="992" y="288"/>
      <point x="974" y="316" type="curve"/>
      <point x="1015" y="341"/>
      <point x="1050" y="365"/>
      <point x="1050" y="426" type="curve" smooth="yes"/>
      <point x="1050" y="476"/>
      <point x="1005" y="530"/>
      <point x="907" y="530" type="curve" smooth="yes"/>
      <point x="789" y="530" type="line"/>
      <point x="789" y="569" type="line"/>
    </contour>
  </outline>
</glyph>
<glyph name="dv_NHa" format="1">
  <advance width="866"/>
  <outline>
    <contour>
      <point x="878" y="569" type="line"/>
      <point x="861" y="680" type="line"/>
      <point x="-11" y="680" type="line"/>
      <point x="6" y="569" type="line"/>
      <point x="613" y="569" type="line"/>
      <point x="613" y="535" type="line"/>
      <point x="550" y="535" type="line" smooth="yes"/>
      <point x="465" y="535"/>
      <point x="379" y="484"/>
      <point x="379" y="394" type="curve" smooth="yes"/>
      <point x="379" y="390"/>
      <point x="379" y="386"/>
      <point x="380" y="382" type="curve"/>
      <point x="104" y="382" type="line" smooth="yes"/>
      <point x="59" y="382"/>
      <point x="31" y="362"/>
      <point x="31" y="324" type="curve" smooth="yes"/>
      <point x="31" y="246"/>
      <point x="127" y="190"/>
      <point x="185" y="197" type="curve"/>
      <point x="212" y="204"/>
      <point x="224" y="241"/>
      <point x="224" y="271" type="curve"/>
      <point x="399" y="271" type="line"/>
      <point x="376" y="242"/>
      <point x="365" y="208"/>
      <point x="365" y="169" type="curve" smooth="yes"/>
      <point x="365" y="102"/>
      <point x="396" y="48"/>
      <point x="453" y="17" type="curve" smooth="yes"/>
      <point x="495" y="-6"/>
      <point x="550" y="-18"/>
      <point x="618" y="-18" type="curve" smooth="yes"/>
      <point x="654" y="-18"/>
      <point x="689" y="-15"/>
      <point x="721" y="-10" type="curve"/>
      <point x="745" y="-5"/>
      <point x="760" y="-2"/>
      <point x="788" y="7" type="curve"/>
      <point x="757" y="122" type="line"/>
      <point x="733" y="115"/>
      <point x="718" y="112"/>
      <point x="694" y="108" type="curve" smooth="yes"/>
      <point x="669" y="104"/>
      <point x="637" y="102"/>
      <point x="613" y="102" type="curve" smooth="yes"/>
      <point x="544" y="102"/>
      <point x="506" y="127"/>
      <point x="506" y="174" type="curve" smooth="yes"/>
      <point x="506" y="220"/>
      <point x="546" y="248"/>
      <point x="612" y="248" type="curve" smooth="yes"/>
      <point x="663" y="248"/>
      <point x="711" y="236"/>
      <point x="757" y="223" type="curve"/>
      <point x="788" y="338" type="line"/>
      <point x="725" y="356"/>
      <point x="666" y="360"/>
      <point x="606" y="360" type="curve" smooth="yes"/>
      <point x="585" y="360"/>
      <point x="571" y="358"/>
      <point x="557" y="358" type="curve" smooth="yes"/>
      <point x="533" y="358"/>
      <point x="516" y="372"/>
      <point x="516" y="390" type="curve" smooth="yes"/>
      <point x="516" y="410"/>
      <point x="536" y="425"/>
      <point x="563" y="425" type="curve" smooth="yes"/>
      <point x="766" y="425" type="line"/>
      <point x="766" y="569" type="line"/>
    </contour>
  </outline>
</glyph>
<glyph name="dv_NyHa" format="1">
  <advance width="1037"/>
  <outline>
    <contour>
      <point x="227" y="134" type="curve" smooth="yes"/>
      <point x="158" y="134"/>
      <point x="90" y="168"/>
      <point x="42" y="215" type="curve"/>
      <point x="17" y="88" type="line"/>
      <point x="71" y="52"/>
      <point x="150" y="18"/>
      <point x="232" y="18" type="curve" smooth="yes"/>
      <point x="343" y="18"/>
      <point x="431" y="73"/>
      <point x="454" y="182" type="curve"/>
      <point x="536" y="182" type="line"/>
      <point x="536" y="169" type="line" smooth="yes"/>
      <point x="536" y="102"/>
      <point x="567" y="48"/>
      <point x="624" y="17" type="curve" smooth="yes"/>
      <point x="666" y="-6"/>
      <point x="721" y="-18"/>
      <point x="789" y="-18" type="curve" smooth="yes"/>
      <point x="825" y="-18"/>
      <point x="860" y="-15"/>
      <point x="892" y="-10" type="curve"/>
      <point x="916" y="-5"/>
      <point x="931" y="-2"/>
      <point x="959" y="7" type="curve"/>
      <point x="928" y="122" type="line"/>
      <point x="904" y="115"/>
      <point x="889" y="112"/>
      <point x="865" y="108" type="curve" smooth="yes"/>
      <point x="840" y="104"/>
      <point x="808" y="102"/>
      <point x="784" y="102" type="curve" smooth="yes"/>
      <point x="715" y="102"/>
      <point x="677" y="127"/>
      <point x="677" y="174" type="curve" smooth="yes"/>
      <point x="677" y="220"/>
      <point x="717" y="248"/>
      <point x="783" y="248" type="curve" smooth="yes"/>
      <point x="834" y="248"/>
      <point x="882" y="236"/>
      <point x="928" y="223" type="curve"/>
      <point x="959" y="338" type="line"/>
      <point x="896" y="356"/>
      <point x="837" y="360"/>
      <point x="777" y="360" type="curve" smooth="yes"/>
      <point x="756" y="360"/>
      <point x="742" y="358"/>
      <point x="728" y="358" type="curve" smooth="yes"/>
      <point x="704" y="358"/>
      <point x="687" y="372"/>
      <point x="687" y="390" type="curve" smooth="yes"/>
      <point x="687" y="410"/>
      <point x="707" y="425"/>
      <point x="734" y="425" type="curve" smooth="yes"/>
      <point x="937" y="425" type="line"/>
      <point x="937" y="569" type="line"/>
      <point x="1049" y="569" type="line"/>
      <point x="1032" y="680" type="line"/>
      <point x="-11" y="680" type="line"/>
      <point x="6" y="569" type="line"/>
      <point x="784" y="569" type="line"/>
      <point x="784" y="535" type="line"/>
      <point x="721" y="535" type="line" smooth="yes"/>
      <point x="636" y="535"/>
      <point x="550" y="484"/>
      <point x="550" y="394" type="curve" smooth="yes"/>
      <point x="550" y="360"/>
      <point x="569" y="325"/>
      <point x="599" y="301" type="curve"/>
      <point x="592" y="295" type="line"/>
      <point x="456" y="295" type="line"/>
      <point x="432" y="406"/>
      <point x="344" y="464"/>
      <point x="232" y="464" type="curve" smooth="yes"/>
      <point x="190" y="464"/>
      <point x="141" y="460"/>
      <point x="87" y="440" type="curve"/>
      <point x="118" y="331" type="line"/>
      <point x="159" y="343"/>
      <point x="199" y="348"/>
      <point x="228" y="348" type="curve" smooth="yes"/>
      <point x="289" y="348"/>
      <point x="334" y="304"/>
      <point x="334" y="242" type="curve" smooth="yes"/>
      <point x="334" y="177"/>
      <point x="288" y="134"/>
    </contour>
  </outline>
</glyph>
<glyph name="dv_PhHa" format="1">
  <advance width="1272"/>
  <outline>
    <contour>
      <point x="1284" y="569" type="line"/>
      <point x="1267" y="680" type="line"/>
      <point x="-11" y="680" type="line"/>
      <point x="6" y="569" type="line"/>
      <point x="74" y="569" type="line"/>
      <point x="74" y="374" type="line" smooth="yes"/>
      <point x="74" y="234"/>
      <point x="184" y="151"/>
      <point x="318" y="151" type="curve" smooth="yes"/>
      <point x="356" y="151"/>
      <point x="409" y="164"/>
      <point x="439" y="179" type="curve"/>
      <point x="439" y="0" type="line"/>
      <point x="580" y="-16" type="line"/>
      <point x="580" y="324" type="line"/>
      <point x="599" y="352"/>
      <point x="624" y="381"/>
      <point x="692" y="381" type="curve" smooth="yes"/>
      <point x="786" y="381" type="line"/>
      <point x="790" y="351"/>
      <point x="807" y="322"/>
      <point x="834" y="301" type="curve"/>
      <point x="792" y="266"/>
      <point x="771" y="222"/>
      <point x="771" y="169" type="curve" smooth="yes"/>
      <point x="771" y="102"/>
      <point x="802" y="48"/>
      <point x="859" y="17" type="curve" smooth="yes"/>
      <point x="901" y="-6"/>
      <point x="956" y="-18"/>
      <point x="1024" y="-18" type="curve" smooth="yes"/>
      <point x="1060" y="-18"/>
      <point x="1095" y="-15"/>
      <point x="1127" y="-10" type="curve"/>
      <point x="1151" y="-5"/>
      <point x="1166" y="-2"/>
      <point x="1194" y="7" type="curve"/>
      <point x="1163" y="122" type="line"/>
      <point x="1139" y="115"/>
      <point x="1124" y="112"/>
      <point x="1100" y="108" type="curve" smooth="yes"/>
      <point x="1075" y="104"/>
      <point x="1043" y="102"/>
      <point x="1019" y="102" type="curve" smooth="yes"/>
      <point x="950" y="102"/>
      <point x="912" y="127"/>
      <point x="912" y="174" type="curve" smooth="yes"/>
      <point x="912" y="220"/>
      <point x="952" y="248"/>
      <point x="1018" y="248" type="curve" smooth="yes"/>
      <point x="1069" y="248"/>
      <point x="1117" y="236"/>
      <point x="1163" y="223" type="curve"/>
      <point x="1194" y="338" type="line"/>
      <point x="1131" y="356"/>
      <point x="1072" y="360"/>
      <point x="1012" y="360" type="curve" smooth="yes"/>
      <point x="991" y="360"/>
      <point x="977" y="358"/>
      <point x="963" y="358" type="curve" smooth="yes"/>
      <point x="939" y="358"/>
      <point x="922" y="372"/>
      <point x="922" y="390" type="curve" smooth="yes"/>
      <point x="922" y="410"/>
      <point x="942" y="425"/>
      <point x="969" y="425" type="curve" smooth="yes"/>
      <point x="1172" y="425" type="line"/>
      <point x="1172" y="569" type="line"/>
    </contour>
    <contour>
      <point x="323" y="269" type="curve" smooth="yes"/>
      <point x="254" y="269"/>
      <point x="216" y="309"/>
      <point x="216" y="374" type="curve" smooth="yes"/>
      <point x="216" y="569" type="line"/>
      <point x="439" y="569" type="line"/>
      <point x="439" y="356" type="line"/>
      <point x="429" y="302"/>
      <point x="380" y="269"/>
    </contour>
    <contour>
      <point x="580" y="461" type="curve"/>
      <point x="580" y="569" type="line"/>
      <point x="1019" y="569" type="line"/>
      <point x="1019" y="535" type="line"/>
      <point x="956" y="535" type="line" smooth="yes"/>
      <point x="910" y="535"/>
      <point x="864" y="520"/>
      <point x="831" y="492" type="curve"/>
      <point x="689" y="492" type="line" smooth="yes"/>
      <point x="637" y="492"/>
      <point x="605" y="479"/>
    </contour>
  </outline>
</glyph>
<glyph name="dv_THa" format="1">
  <advance width="915"/>
  <outline>
    <contour>
      <point x="927" y="569" type="line"/>
      <point x="910" y="680" type="line"/>
      <point x="-11" y="680" type="line"/>
      <point x="6" y="569" type="line"/>
      <point x="662" y="569" type="line"/>
      <point x="662" y="535" type="line"/>
      <point x="599" y="535" type="line" smooth="yes"/>
      <point x="543" y="535"/>
      <point x="487" y="513"/>
      <point x="455" y="473" type="curve"/>
      <point x="241" y="473" type="line" smooth="yes"/>
      <point x="121" y="473"/>
      <point x="54" y="399"/>
      <point x="54" y="299" type="curve" smooth="yes"/>
      <point x="54" y="202"/>
      <point x="141" y="77"/>
      <point x="210" y="-22" type="curve"/>
      <point x="337" y="15" type="line"/>
      <point x="248" y="152"/>
      <point x="192" y="239"/>
      <point x="192" y="295" type="curve" smooth="yes"/>
      <point x="192" y="338"/>
      <point x="223" y="360"/>
      <point x="284" y="360" type="curve" smooth="yes"/>
      <point x="434" y="360" type="line"/>
      <point x="442" y="338"/>
      <point x="457" y="317"/>
      <point x="477" y="301" type="curve"/>
      <point x="435" y="266"/>
      <point x="414" y="222"/>
      <point x="414" y="169" type="curve" smooth="yes"/>
      <point x="414" y="102"/>
      <point x="445" y="48"/>
      <point x="502" y="17" type="curve" smooth="yes"/>
      <point x="544" y="-6"/>
      <point x="599" y="-18"/>
      <point x="667" y="-18" type="curve" smooth="yes"/>
      <point x="703" y="-18"/>
      <point x="738" y="-15"/>
      <point x="770" y="-10" type="curve"/>
      <point x="794" y="-5"/>
      <point x="809" y="-2"/>
      <point x="837" y="7" type="curve"/>
      <point x="806" y="122" type="line"/>
      <point x="782" y="115"/>
      <point x="767" y="112"/>
      <point x="743" y="108" type="curve" smooth="yes"/>
      <point x="718" y="104"/>
      <point x="686" y="102"/>
      <point x="662" y="102" type="curve" smooth="yes"/>
      <point x="593" y="102"/>
      <point x="555" y="127"/>
      <point x="555" y="174" type="curve" smooth="yes"/>
      <point x="555" y="220"/>
      <point x="595" y="248"/>
      <point x="661" y="248" type="curve" smooth="yes"/>
      <point x="712" y="248"/>
      <point x="760" y="236"/>
      <point x="806" y="223" type="curve"/>
      <point x="837" y="338" type="line"/>
      <point x="774" y="356"/>
      <point x="715" y="360"/>
      <point x="655" y="360" type="curve" smooth="yes"/>
      <point x="634" y="360"/>
      <point x="620" y="358"/>
      <point x="606" y="358" type="curve" smooth="yes"/>
      <point x="582" y="358"/>
      <point x="565" y="372"/>
      <point x="565" y="390" type="curve" smooth="yes"/>
      <point x="565" y="410"/>
      <point x="585" y="425"/>
      <point x="612" y="425" type="curve" smooth="yes"/>
      <point x="815" y="425" type="line"/>
      <point x="815" y="569" type="line"/>
    </contour>
  </outline>
</glyph>
<glyph name="dv_ThHa" format="1">
  <advance width="938"/>
  <outline>
    <contour>
      <point x="950" y="569" type="line"/>
      <point x="933" y="680" type="line"/>
      <point x="364" y="680" type="line"/>
      <point x="381" y="569" type="line"/>
      <point x="685" y="569" type="line"/>
      <point x="685" y="535" type="line"/>
      <point x="622" y="535" type="line" smooth="yes"/>
      <point x="537" y="535"/>
      <point x="451" y="484"/>
      <point x="451" y="394" type="curve" smooth="yes"/>
      <point x="451" y="360"/>
      <point x="470" y="325"/>
      <point x="500" y="301" type="curve"/>
      <point x="481" y="285"/>
      <point x="466" y="267"/>
      <point x="455" y="247" type="curve"/>
      <point x="434" y="239"/>
      <point x="408" y="234"/>
      <point x="372" y="234" type="curve" smooth="yes"/>
      <point x="288" y="234"/>
      <point x="245" y="292"/>
      <point x="238" y="327" type="curve"/>
      <point x="239" y="326" type="line"/>
      <point x="295" y="360"/>
      <point x="353" y="408"/>
      <point x="353" y="520" type="curve" smooth="yes"/>
      <point x="353" y="622"/>
      <point x="281" y="699"/>
      <point x="188" y="699" type="curve" smooth="yes"/>
      <point x="105" y="699"/>
      <point x="45" y="647"/>
      <point x="45" y="573" type="curve" smooth="yes"/>
      <point x="45" y="507"/>
      <point x="100" y="468"/>
      <point x="160" y="468" type="curve" smooth="yes"/>
      <point x="198" y="468"/>
      <point x="232" y="486"/>
      <point x="237" y="507" type="curve"/>
      <point x="237" y="429"/>
      <point x="160" y="407"/>
      <point x="127" y="395" type="curve"/>
      <point x="100" y="360" type="line"/>
      <point x="100" y="238"/>
      <point x="211" y="118"/>
      <point x="366" y="118" type="curve" smooth="yes"/>
      <point x="394" y="118"/>
      <point x="419" y="120"/>
      <point x="442" y="124" type="curve"/>
      <point x="453" y="78"/>
      <point x="481" y="41"/>
      <point x="525" y="17" type="curve" smooth="yes"/>
      <point x="567" y="-6"/>
      <point x="622" y="-18"/>
      <point x="690" y="-18" type="curve" smooth="yes"/>
      <point x="726" y="-18"/>
      <point x="761" y="-15"/>
      <point x="793" y="-10" type="curve"/>
      <point x="817" y="-5"/>
      <point x="832" y="-2"/>
      <point x="860" y="7" type="curve"/>
      <point x="829" y="122" type="line"/>
      <point x="805" y="115"/>
      <point x="790" y="112"/>
      <point x="766" y="108" type="curve" smooth="yes"/>
      <point x="741" y="104"/>
      <point x="709" y="102"/>
      <point x="685" y="102" type="curve" smooth="yes"/>
      <point x="616" y="102"/>
      <point x="578" y="127"/>
      <point x="578" y="174" type="curve" smooth="yes"/>
      <point x="578" y="220"/>
      <point x="618" y="248"/>
      <point x="684" y="248" type="curve" smooth="yes"/>
      <point x="735" y="248"/>
      <point x="783" y="236"/>
      <point x="829" y="223" type="curve"/>
      <point x="860" y="338" type="line"/>
      <point x="797" y="356"/>
      <point x="738" y="360"/>
      <point x="678" y="360" type="curve" smooth="yes"/>
      <point x="657" y="360"/>
      <point x="643" y="358"/>
      <point x="629" y="358" type="curve" smooth="yes"/>
      <point x="605" y="358"/>
      <point x="588" y="372"/>
      <point x="588" y="390" type="curve" smooth="yes"/>
      <point x="588" y="410"/>
      <point x="608" y="425"/>
      <point x="635" y="425" type="curve" smooth="yes"/>
      <point x="838" y="425" type="line"/>
      <point x="838" y="569" type="line"/>
    </contour>
    <contour>
      <point x="165" y="555" type="curve" smooth="yes"/>
      <point x="154" y="555"/>
      <point x="143" y="566"/>
      <point x="143" y="579" type="curve" smooth="yes"/>
      <point x="143" y="596"/>
      <point x="156" y="608"/>
      <point x="173" y="608" type="curve" smooth="yes"/>
      <point x="184" y="608"/>
      <point x="195" y="595"/>
      <point x="196" y="588" type="curve"/>
      <point x="196" y="568"/>
      <point x="184" y="555"/>
    </contour>
  </outline>
</glyph>
<glyph name="dv_VHa" format="1">
  <advance width="1050"/>
  <outline>
    <contour>
      <point x="1062" y="569" type="line"/>
      <point x="1045" y="680" type="line"/>
      <point x="-11" y="680" type="line"/>
      <point x="6" y="569" type="line"/>
      <point x="797" y="569" type="line"/>
      <point x="797" y="535" type="line"/>
      <point x="734" y="535" type="line" smooth="yes"/>
      <point x="649" y="535"/>
      <point x="563" y="484"/>
      <point x="563" y="394" type="curve" smooth="yes"/>
      <point x="563" y="360"/>
      <point x="582" y="325"/>
      <point x="612" y="301" type="curve"/>
      <point x="570" y="266"/>
      <point x="549" y="222"/>
      <point x="549" y="169" type="curve" smooth="yes"/>
      <point x="549" y="102"/>
      <point x="580" y="48"/>
      <point x="637" y="17" type="curve" smooth="yes"/>
      <point x="679" y="-6"/>
      <point x="734" y="-18"/>
      <point x="802" y="-18" type="curve" smooth="yes"/>
      <point x="838" y="-18"/>
      <point x="873" y="-15"/>
      <point x="905" y="-10" type="curve"/>
      <point x="929" y="-5"/>
      <point x="944" y="-2"/>
      <point x="972" y="7" type="curve"/>
      <point x="941" y="122" type="line"/>
      <point x="917" y="115"/>
      <point x="902" y="112"/>
      <point x="878" y="108" type="curve" smooth="yes"/>
      <point x="853" y="104"/>
      <point x="821" y="102"/>
      <point x="797" y="102" type="curve" smooth="yes"/>
      <point x="728" y="102"/>
      <point x="690" y="127"/>
      <point x="690" y="174" type="curve" smooth="yes"/>
      <point x="690" y="220"/>
      <point x="730" y="248"/>
      <point x="796" y="248" type="curve" smooth="yes"/>
      <point x="847" y="248"/>
      <point x="895" y="236"/>
      <point x="941" y="223" type="curve"/>
      <point x="972" y="338" type="line"/>
      <point x="909" y="356"/>
      <point x="850" y="360"/>
      <point x="790" y="360" type="curve" smooth="yes"/>
      <point x="769" y="360"/>
      <point x="755" y="358"/>
      <point x="741" y="358" type="curve" smooth="yes"/>
      <point x="717" y="358"/>
      <point x="700" y="372"/>
      <point x="700" y="390" type="curve" smooth="yes"/>
      <point x="700" y="410"/>
      <point x="720" y="425"/>
      <point x="747" y="425" type="curve" smooth="yes"/>
      <point x="950" y="425" type="line"/>
      <point x="950" y="569" type="line"/>
    </contour>
    <contour>
      <point x="40" y="278" type="curve" smooth="yes"/>
      <point x="40" y="154"/>
      <point x="133" y="59"/>
      <point x="273" y="59" type="curve"/>
      <point x="411" y="62"/>
      <point x="502" y="156"/>
      <point x="502" y="279" type="curve" smooth="yes"/>
      <point x="502" y="402"/>
      <point x="411" y="496"/>
      <point x="273" y="498" type="curve"/>
      <point x="133" y="498"/>
      <point x="40" y="403"/>
    </contour>
    <contour>
      <point x="271" y="381" type="curve" smooth="yes"/>
      <point x="324" y="381"/>
      <point x="369" y="339"/>
      <point x="369" y="279" type="curve" smooth="yes"/>
      <point x="369" y="218"/>
      <point x="324" y="176"/>
      <point x="271" y="176" type="curve" smooth="yes"/>
      <point x="218" y="177"/>
      <point x="173" y="218"/>
      <point x="173" y="279" type="curve" smooth="yes"/>
      <point x="173" y="339"/>
      <point x="218" y="381"/>
    </contour>
  </outline>
</glyph>
<glyph name="grave.case" format="1">
  <advance width="225"/>
  <outline>
    <contour>
      <point x="123" y="702" type="move" name="_topU"/>
    </contour>
    <contour>
      <point x="16" y="903" type="line"/>
      <point x="111" y="739" type="line"/>
      <point x="210" y="739" type="line"/>
      <point x="150" y="903" type="line"/>
    </contour>
  </outline>
</glyph>
